<?xml version="1.0" standalone="no"?>
<!DOCTYPE svg PUBLIC "-//W3C//DTD SVG 1.1//EN" "http://www.w3.org/Graphics/SVG/1.1/DTD/svg11.dtd" >
<svg xmlns="http://www.w3.org/2000/svg">
<metadata></metadata>
<defs>
<font id="kr_fabulous_fallregular" horiz-adv-x="2048" >
<font-face units-per-em="2048" ascent="1638" descent="-410" />
<missing-glyph horiz-adv-x="500" />
<glyph horiz-adv-x="0" />
<glyph unicode="&#xd;" />
<glyph unicode=" " />
<glyph unicode="A" d="M1933 -152h-1835v1579h1835v-1579zM1845 94q-37 33 -37 43q0 4 7.5 11.5t7.5 13.5h-94q33 -33 32 -49q-10 -8 -32.5 -18.5t-32.5 -18.5q35 0 35 -51h90q8 16 16 49q8 24 8 20zM1886 201v379q-80 0 -110 28q6 35 28 103l82 -15v684h-1739v-301l50 31q33 2 63 33 q43 -86 43 -105q0 -70 -80 -69q-33 0 -78 12v-315q70 -14 95 -43l-39 -17l55 -16l-27 -55q-35 14 -82 14v-574q39 63 83 127t112 64q39 0 90 -19q-59 37 -133 103q-61 57 -123 115q33 16 76 12q2 33 14 78q6 -16 45 -17q57 0 58 80q0 39 -80 119q33 16 78 10v121 q0 27 -39 80l-58 74q51 -12 103 -25q45 -10 98 -10q25 0 57.5 -32t55.5 -32q41 0 80 31q6 -20 16 -41.5t33 -21.5q39 0 53 18v104q0 23 -25.5 41.5t-25.5 38.5q0 27 30 86q33 -33 84 -45l-2 49q-2 47 15 93q14 -33 55 -33q43 0 84 86q53 111 63 123q8 -72 56.5 -134.5 t116.5 -87.5q-4 -10 -5 -28q0 -39 9 -86l96 94l10 -102q-23 -43 -47 -86q-33 -59 -33 -93q0 -39 23 -55q20 2 74.5 17.5t103.5 15.5q29 0 106.5 31.5t131.5 31.5l75 -10q-35 -43 -67 -88q-45 -63 -45 -94q0 -39 47 -72q-37 -35 -74 -67q-53 -51 -53 -76q0 -53 41 -53 q12 0 39.5 6t38.5 6q20 0 84 -43q78 -55 83 -60q-63 -16 -178 -69q-141 -66 -141 -100q0 -39 47 -72q-39 -39 -127 -39q-53 0 -135 80l-64 -64q-6 6 -38 109q-23 68 -82 67q-55 0 -84 -44t-29 -101q0 -39 18 -92q35 -10 134 -60q80 -41 137 -40q63 0 195 39.5t196 39.5 q59 0 178 -45v103q-2 -39 -18 -72q-27 39 -92 45q-8 0 -109 -2q6 18 6 33q0 12 -18.5 27.5t-20.5 27.5l80 33l-47 63q166 1 223 15zM1696 354q-18 12 -65.5 15.5t-63.5 13.5q-31 18 -31 72q0 45 31 84q12 18 65 65q-18 39 -18 92q0 51 16 109q-86 -25 -170 -49 q-109 -29 -172 -29q-31 0 -59.5 36t-28.5 66q0 53 64 150q-82 4 -119 123q-86 70 -113 121q-45 -53 -121 -127q-121 -115 -127 -121q33 -43 33 -113q0 -119 -96 -119q-25 0 -350 93q51 -129 51 -252q0 -188 -150 -232q12 -16 111 -108q74 -68 84 -125h72q27 0 65 80 q20 0 57 -14.5t56 -16.5q4 27 61.5 69t85.5 42q29 0 73 -32t62 -32q27 0 73 32t73 32q31 0 71.5 -46.5t51.5 -80.5q20 14 59 14q80 -76 193 -76q-31 37 -31 70q0 49 100.5 103t106.5 91zM1790 -111v27h-156v-27h156zM1534 -113v29h-76v-29h76zM256 1042q0 8 -2 25.5t-2 26.5 q-55 -25 -107 -74h11q6 -2 10 -2q23 0 35 12l39 -31q16 10 16 43zM958 -8v203q-68 37 -94 36q-45 0 -88 -55q-33 -45 -63 -90q-29 20 -82 64q-18 -27 -66 -56q-53 -35 -69 -51q37 0 105.5 13.5t103.5 13.5q52 0 253 -78zM1151 -100q-59 59 -86 59q-12 0 -28.5 -8t-28.5 -8 q-29 0 -163 50t-149 46q-117 -33 -235 -66q-168 -47 -225 -47q-39 0 -93 -26h1008zM449 53q-25 20 -50 41q-31 25 -55 25q-39 0 -78 -53q-33 -45 -41 -91h74q21 15 150 78zM1747 1124q-6 6 -16 6q-66 0 -66 -55q0 -27 14 -41q-2 0 -94 39q-55 25 -96 25q2 2 2 8q0 55 -51 92 q27 27 45 64.5t31 54.5q-2 -8 -3 -17q0 -49 41 -67q23 -10 80 -16q45 -4 49 -17q17 -45 64 -76zM688 1020q-20 0 -59 13.5t-62 13.5q-31 0 -63 -33q-61 43 -150 133v123q57 -23 164 -80q18 37 66 37q10 0 20 -4q-51 -20 -63 -80q-14 4 -64 33q-37 23 -65 20h-13 q29 -20 80 -66l-20 3q-33 0 -60 -15q84 -55 121 -55q16 0 105 43q0 10 -18.5 24.5t-22.5 20.5q4 6 26 6q8 0 27.5 -1t32.5 1v-92h-27q-23 2 -35 -10q31 -12 80 -35zM1030 281h-29v475h29v-475zM1589 1120l-53 74l-23 -14l54 -74z" />
<glyph unicode="B" d="M2032 559q-68 -35 -68 -76q0 -4 16.5 -45t16.5 -63v-6q-45 12 -90 12l-39 -6q2 -43 18 -76l-61 -31q10 -20 43 -43q43 -27 51 -37q-49 -2 -33 -67q-47 0 -78 -41q41 -33 127 -96q-43 -45 -43 -97q0 -20 9 -77q-61 37 -101 36q-41 0 -45 -47q-27 53 -84 160l-49 -80 l-16 64l-66 -47l2 32q4 31 -13.5 54.5t-47.5 23.5l-74 -10q49 -47 63 -82l-63 -12q23 -33 63 -101q-25 14 -51 29.5t-51 15.5q-41 0 -12 -47l-64 49q-20 -59 -14 -143q-23 12 -61 12q-25 0 -93 -61v25q4 109 -61 108q-10 0 -23 -2q47 47 64 80q-33 16 -96 16q33 23 82 78 l-226 -12l97 -47q-72 -2 -146 -49q33 -49 47 -82q-82 -33 -84 -84l-86 41q2 70 -14 118q-6 -33 -45 -32q-41 0 -88 34v74l63 45q-63 2 -119 25l-14 -113q-18 25 -67 58q-43 27 -64 69l-61 -110q-53 31 -84 30q-25 0 -68 -14q18 29 19 68q0 49 -37 83q43 18 127 64l-56 47 l39 19q-14 35 -63 79l86 -10v80q51 -49 100 -49q-47 76 -84 145q-39 -31 -112 -96q0 39 -36 62.5t-77 23.5q-14 0 -27 -2q4 8 41 51q29 31 29 58l-31 40q41 0 144 35v92q0 37 -50.5 68t-85.5 21q6 41 39 71l-47 51q63 8 109 50q0 39 -13 88l56 -21l12 64q31 -20 61 -21l17 4 l-35 41q47 16 80 49l-47 13q47 35 80 51q-41 41 -129 115l65 32q-16 80 -31 129q109 -29 111 -28q39 0 57 30q23 -51 64 -159l43 80l35 -48l69 45v-110l68 12l-33 29q33 2 64 18q-20 33 -62 101q25 -14 51.5 -30.5t51.5 -16.5q39 0 12 49l63 -49q23 66 17 143l53 -31 q29 14 96 80q0 -135 66 -135q8 0 18 4q-45 -49 -63 -82q35 -16 112 -16q-37 -25 -110 -68q18 -23 78 -27q-27 2 84 2q-35 43 -66 60q29 0 74 22q53 25 71 29q-23 29 -22 51q0 23 24 31q18 63 35 98l103 -67l18 -94q41 0 111 -21l-47 -51l45 -10l-45 -56q14 -25 86 -53 q23 53 65 176q31 -63 74 -82q20 -31 53 -63q4 6 84 129l53 -49q41 0 78 14v-154q-43 -16 -125 -61l47 -47q14 -68 31 -101l-68 15l-8 -51l-73 34q-29 -14 -58 -102q49 -8 142 4l-15 -67q43 -10 146 0q-33 -16 -113 -99l49 -14q-37 -25 -113 -68q46 -28 177 -94zM1712 1069 q-14 39 -43 82q-8 -2 -14 -2q-23 0 -47 25q-14 -29 -47 -80q-8 20 -41 48.5t-41 47.5v-8q2 -100 -103 -109q55 -55 64 -115q2 -8 8 -8q14 0 33 17q43 -45 65 -97q0 33 31 64q16 -8 49 -31q2 12 13.5 29.5t21.5 11.5l-29 49q0 35 80 76zM1376 860q-41 18 -112 66q16 12 47 37 l-23 -2q-43 -2 -71 16q37 59 110 129h-10q-57 -2 -70 47q-2 10 -4 94v6q-35 -25 -98 -79l-51 49q0 -82 -33 -176l-76 47q-18 -8 -35 -9q-20 0 -41.5 13.5t-42.5 27.5v-155q14 -20 45 -60q-10 -8 -127 -65q90 -23 209 -82q-23 -37 -55 -115q27 10 53 41q37 47 43 53 q45 -10 195 -94q-23 70 -23 96q0 18 6 33h99q-23 23 -47 64q36 18 112 18zM1776 381q-31 25 -97 68l80 81l-16 -2q-33 0 -47 15l47 51q-10 0 -30.5 -6t-33.5 -6q-18 0 -20 16t-19 16q-8 0 -13 -11t-23 -11q-14 0 -37 4l-17 88q-43 18 -104 57q0 -61 -19 -98h-67 q33 -29 80 -98q-37 -18 -78 -13q4 -14 4 -24q0 -49 -70 -43q27 -25 80 -70q0 -8 80 -47q-12 -31 -47 -82q49 23 147 62q18 -33 52 -97q8 16 8 39q0 33 -17 62q33 16 89 28q70 15 88 21zM743 1102q-39 0 -55 18q6 10 6 23q0 10 -7 28.5t-7 26.5q2 -10 -8 -10 q-53 0 -66.5 17.5t-30.5 17.5q-10 0 -30 -2h-29q-20 -23 -20 -62q0 -10 44 -84t40 -106l92 49q0 25 24 54.5t47 29.5zM1272 317q-53 0 -88 27q8 10 8 18q0 25 -57 25q0 14 7 42t7 40q-20 -10 -57 -39t-58 -41q-29 57 -71 80q25 -72 24 -98q0 -16 -6 -29h-10q-27 0 -107 -39 q23 -8 45 -16q31 -12 35 -31l-47 -51q29 -16 35 -22.5t4 -32.5q0 12 25 12q23 0 28 -10l55 30q14 -39 23 -57q16 -41 33 -47l10 2q14 0 39 -11.5t33 -11.5v13q-2 35 35 88q-25 25 -66 80q14 12 55 10q2 27 21.5 48t44.5 21zM735 618q-16 23 -80 54l64 67q-8 -4 -14 -4 q-25 0 -35 53q-10 0 -27.5 -5t-28.5 -5q-57 0 -74.5 34t-33.5 67l-10 -2q-33 0 -74 41q-2 -16 -19.5 -57.5t-17.5 -61.5q0 -25 21.5 -43.5t42.5 -36.5q-45 -23 -66 -17q18 0 18 -4q0 -6 -65 -43q20 -12 65 -53q6 -8 31 -14t33 -15q-14 -27 -12 -61v-25q66 66 106 64h4 q31 -61 76 -62q-12 33 -47 84q71 49 143 45zM735 303q-4 4 -12 4q-10 0 -33.5 -7t-38.5 -7q-18 33 -53 98q0 -66 -51 -65q-49 0 -80 16v-74q25 -29 25 -28q0 -4 -7 -11q-23 -8 -67 -16v-76q18 0 43.5 -16.5t21.5 -32.5l68 62q27 -29 67 -95v8q-2 35 28 73t65 38q12 0 24 -4 q-20 31 -63 84q22 14 63 49z" />
<glyph unicode="C" horiz-adv-x="2203" d="M2116 829q0 -84 -41 -248.5t-41 -248.5q0 -43 8 -72q14 20 49 53q-8 -6 -28.5 -41.5t-80.5 -50.5q8 197 43 402q2 14 21 84q14 55 14 81l-10 62q-14 0 -37 -27q-14 -20 -31 -41q18 33 39 68t47 51q48 -49 48 -72zM1901 829q0 -84 -41 -248.5t-41 -248.5q0 -43 10 -72 q39 33 53 66q-8 -29 -40 -64t-60 -41v41q-2 125 39 375q27 152 26 151l-10 74q-23 -8 -47 -67q16 39 63 106q48 -49 48 -72zM1710 311q-29 -43 -43 -59q-29 -35 -57 -45q-12 47 -13 174q-41 -86 -129 -174h-61q-2 12 -25 59q-16 37 -16 60q0 90 55 174q61 94 146 94 q47 0 67 -12l49 10q-4 -31 -28 -152q-23 -96 -23 -147q0 -31 19 -47q8 14 59 65zM2142 -150q-43 -2 -109.5 -36.5t-109.5 -34.5q-61 0 -104 -10q20 -37 53 -111q-147 106 -236 127q-14 4 -243 27q66 10 194 43q-39 92 -74 215q45 -45 82 -54v80q29 -25 56 -37q6 10 6 50 l4 20q12 14 23.5 46t23.5 44q6 -27 33.5 -74t34.5 -73q51 25 79 80q0 -27 13 -39q57 27 82 53v-6q0 -23 12 -35q18 10 61 53q-27 -27 -28 -96q18 -18 47 -2l-47 -55q25 -25 53 -25q-80 -27 -121 -53q70 -38 215 -97zM1458 842q0 -33 -33.5 -80t-66.5 -47t-47 18 q27 6 60.5 42t33.5 61q0 41 -28.5 67.5t-71.5 26.5q-76 0 -111 -76q-23 -51 -35 -163.5t-22 -141.5q121 -12 153 -12q20 0 41 34q16 27 23 50q-2 -68 -21 -201l-8 84l-94 10q-78 0 -105 -37q-18 -25 -22 -94q-6 -86 -21 -127q92 -31 136 -29l-256 -18q0 -25 57 -43 q39 -10 78 -21q-37 0 -107.5 10.5t-107.5 10.5q-8 0 -168 -39l-27 66l-86 -87q37 -37 121 -61l135 68l66 -19q-43 -14 -84 -27.5t-76 -54.5q88 -121 131 -198q-66 35 -119 34q10 -39 10 -65q0 -23 -4 -31l-24 39q-2 -14 -9.5 -48t-7.5 -52t7 -39q-39 20 -103 61l-22 51 q-23 -41 -70 -120v10q0 33 -12 57l-35 -65l-45 39l-39 -68q-4 29 -7 59.5t-26 44.5l-14 80q31 14 67 47q-39 8 -96 31q-78 31 -92 37l18 -6q43 0 84 39t47 82l41 -2q35 0 78 12l-76 45l9 59l-70 9l-4 26q0 20 45 53q53 39 63 56q-27 0 -75 -17q-61 -20 -78 -24q37 57 65 71 q-45 4 -133 23v10q0 29 39 51q51 31 60 43q16 -8 59 -49q37 -37 53 -37q12 0 29 13q-70 51 -115 141q-18 -20 -110 -78q27 51 26 119l-33 -25h-61l39 43q-29 14 -80 21l-80 -37q45 74 45 88q0 12 -4 27q63 6 92 22q-49 14 -147 47l53 21l-74 39l47 28q-14 27 -79 37 q63 63 100 64q12 0 23.5 -14.5t23.5 -14.5q35 0 35 41q14 -29 61 -68q0 72 25 193q-66 59 -133 78q4 47 82 109.5t125 62.5q61 0 65 -41q4 -49 33 -62l-41 -151q-33 -10 -107 -10q12 -25 68 -74q47 -43 78 -145q37 20 115 53q-25 -66 -66 -201q66 25 135 229q35 0 39 -26 q4 14 4 33q0 23 -10 68.5t-8 68.5q18 16 65 96q43 -12 58 -39q6 33 32 60l-61 61q-63 -66 -61 -119l-43 25q-68 -39 -109 -53q-27 16 -51 96q-23 70 -23 110q0 37 19 74q57 -16 114 -33q74 -23 115 -22q41 0 62 10l-39 64q33 -14 57 -15l20 4l-38 66q16 16 16 100 q16 -25 62 -60.5t63 -60.5q16 14 22 52q6 27 13 55l30 -39q39 35 68 94l12 -41l56 80q-8 -31 -9 -96l47 10l-20 -41q18 -27 53 -37l-80 -82q57 -18 101 -18q14 0 53 3t74 3q-25 -37 -80 -70q-47 -27 -94 -53l67 -12q-76 -18 -174 -68q39 -25 105 -84q-53 10 -82 25 q-8 -51 4 -76q-49 -23 -148 -65l88 20l78 -10l8 -55q-94 -59 -100 -60q-53 -2 -106 -2l-76 -6q2 -18 18.5 -23.5t40.5 -3.5q33 4 35 4q74 0 106 -69q-74 0 -145 -43q-63 43 -131 43q-10 0 -21 -2l-2 -11q0 -23 33 -34q-10 -49 -47 -49q-18 0 -56 13t-57 13 q-23 0 -63.5 -21.5t-56.5 -39.5l39 -58q27 -43 47 -43q35 0 45 27q29 -88 88 -86q20 -16 30.5 -74.5t49.5 -79.5l43 66q33 -59 104 -172l86 37q18 82 43 260q-33 8 -94 31q80 2 108 110q27 100 54 203q47 109 172 108q57 0 102 -30.5t45 -83.5zM1499 -72q-41 -14 -110 -69 q-51 -41 -123 -41q-47 0 -56 59q-12 68 -45 80q25 43 49.5 86t63.5 43q18 0 116.5 -70t104.5 -88zM1163 -168h-84q-20 0 -88 25q-80 27 -94 30v82q0 2 14.5 19.5t14.5 68.5q27 0 59.5 20.5t50.5 20.5t72.5 -71.5t54.5 -94.5v-100zM981 1065v49h-23v-49h23zM915 1114h-24 l-12 -117h22zM1632 551q-8 2 -27.5 16.5t-37.5 14.5q-43 0 -92 -109q-43 -94 -43 -147q0 -51 49 -80q63 63 151 305zM795 1061h-23l-14 -164h22zM520 512q0 51 -59 82q-8 -8 -22.5 -30.5t-22.5 -33.5q23 0 59.5 -14t44.5 -14v10zM662 334l-72 137h-19l70 -145zM657 246 l-8 18l-125 -55v-21z" />
<glyph unicode="D" horiz-adv-x="1613" d="M1554 420q0 -330 -102 -537q-135 -274 -428 -274q-207 0 -459 207q-231 190 -398 467.5t-167 480.5q0 106 154 242q117 100 235 200q-4 12 -43 121q-29 84 -29 117q0 61 75 137t138 76q61 0 109 -156q57 -186 80 -213q188 -35 379 -69q291 -59 325 -115q37 -63 86 -334 q45 -252 45 -350zM1483 446q0 260 -80 398q-115 -190 -451 -299q-279 -90 -555 -90q-18 0 -235 32q115 -326 332 -546q258 -262 565 -263q424 0 424 768z" />
<glyph unicode="E" horiz-adv-x="4093" d="M3998 1444q-94 -254 -252 -410q-102 -102 -293 -205q-203 -109 -272 -170q-47 -43 -82 -139q-59 -152 -60 -151q41 -37 80 -72q49 -47 49 -90q0 -221 -90 -332q-74 -92 -244 -139q-176 -39 -352 -80q14 352 84 500q106 219 393 219q47 0 95 125q59 156 67 168 q-295 -33 -450 -66q-229 -49 -433 -145l-14 -27q96 -113 96 -192q0 -221 -239 -320q-170 -70 -430 -70q-6 41 -39 185q-29 119 -29 182q0 127 104.5 231.5t233.5 104.5q37 0 115 -25.5t116 -25.5q74 0 136 41q-285 123 -377 123q-233 0 -348 -39q-66 -20 -144 -164 q-72 -135 -114 -135l-74 22q16 -8 33 -8q57 0 125 125q88 162 100 172q-51 31 -279 129q-240 104 -266 104q-37 0 -113.5 -71.5t-134.5 -71.5q-178 0 -381 184q-150 158 -299 314l19 108l94 -14q125 111 270 111q518 0 519 -326q0 -233 208 -234l60 13q-57 115 -109 340 q137 -545 551 -545l37 6q-272 92 -272 354q0 49 63 213q76 186 86 228q80 -90 256 -236q133 -109 178 -192q66 -121 60 -328q119 -70 151 -84q88 -41 164 -41q23 0 291 76q-14 68 -103.5 130t-171.5 62q-33 0 -57 -12l-39 41q33 43 33 76q0 12 -63 166q25 18 223 239 q152 166 231 166l51 -33q57 25 88 127l107 -22q63 -115 125 -230q70 -131 69 -241q0 -43 -15 -126t-17 -126l-86 -37l-160 33q-2 -4 -55 -70q-23 -29 -47 -29q-31 0 -103 35l-12 -71l121 -74q575 0 919 455l-137 -7q-37 -2 -61.5 35t-24.5 78l18 94l76 15q-47 -100 -47 -101 q0 -29 18.5 -51t45.5 -22q121 0 184 40q35 20 102.5 100.5t143.5 129.5zM3088 1151q0 55 -24 117q-27 72 -68 90q2 18 2 -127q0 -78 -43 -105q0 86 -26 224q-33 176 -37 223q-70 -59 -137 -121q-96 -82 -142 -104q20 63 90 127q-102 -23 -154 -104t-100 -161l31 2 q113 6 326 -88t211 -94q71 0 71 121zM3023 922q-45 68 -249 152.5t-294 84.5q-51 0 -160 -37q4 -14 29 -75q20 -47 21 -78q0 -27 -17 -45q49 0 110.5 -35t71.5 -35q33 0 121 12q76 10 125 6q14 78 68 78q47 1 174 -28zM3105 207q0 51 -76 88q-74 -135 -147 -270 q-102 -174 -179 -240h103q156 0 235 139q64 113 64 283zM2001 911q0 31 -170 193q-106 98 -211 196q182 -391 360 -509q2 16 11.5 56.5t9.5 63.5zM2959 322q-109 37 -135 36q-86 0 -180 -184q-84 -166 -84 -264q0 -88 20 -127q74 23 166 141q76 98 117 191q-51 0 -80 26 q74 59 99 82q52 52 77 99zM1952 715q-246 254 -391 555q-88 -219 -88 -264q0 -131 137 -226q125 -86 262 -86q16 0 41 8q33 13 39 13zM2241 231q0 94 -99.5 175t-197.5 81q-27 0 -94.5 -34.5t-90.5 -55.5q113 -61 189 -121q57 -51 113.5 -99t138.5 -50q41 45 41 104z M2134 68h-27l-18 -91h29zM2048 61q0 18 -90 72q-37 -127 -98 -127l-17 4q20 49 35 123q12 61 25 125q-10 4 -234 117q-37 -76 -37 -121t40 -136t40 -136q0 -10 -7 -27.5t-7 -26.5h180q47 0 108.5 44t61.5 89zM881 1182q0 72 -72 114q-61 39 -137 39q-55 0 -105 -155 q-39 -129 -39 -205q0 -55 56.5 -119.5t111.5 -64.5q185 0 185 391zM512 1360l-154 22q-39 -27 -118 -75l157 -2q58 0 115 55zM512 1249q-31 23 -72 23q-31 0 -88 -16.5t-88 -16.5q-35 0 -28 61q-25 -12 -41 -43q-6 -14 -84 -14l-15 -4q23 -20 127 -201q86 -150 139 -149h101 q-27 29 -27 69q0 49 33 144q37 102 43 147z" />
<glyph unicode="F" horiz-adv-x="2824" d="M2662 1317q-123 -162 -223 -162q-20 0 -39 27q-14 20 -26 41q-18 -18 -56 -33v10q0 35 -16 65.5t-35 61.5q-20 49 -35 125q37 6 52 37q4 8 16 63q45 -25 106 -55q6 4 99 37q59 23 90 53q-31 -59 -31 -98q0 -10 19.5 -41t19.5 -62q0 -18 -6 -36q32 -31 65 -33zM2662 -147 q-31 -100 -86 -129q-68 -25 -137 -50q-33 12 -67 82q-10 -8 -36 -17t-36 -18l47 41q-68 12 -94 88q-12 35 -21 136q76 18 70 104q18 -18 61 -41.5t60 -42.5l78 49q2 -2 8 -2t35.5 17.5t31.5 17.5q0 -94 35 -217q31 -16 51 -18zM2583 457q0 -63 -97 -166q-55 -57 -196 -176 q-127 -109 -158 -148l82 -71q-168 -41 -500 -134l68 -65q-102 -29 -203 -55q-127 -35 -205 -35l-133 33q-82 -33 -121 -33q-111 0 -215 184q-72 -45 -131 -133q-70 70 -100 115q-41 -35 -56 -52q-27 -31 -40 -63q-90 18 -146 74q53 53 268 231q-250 43 -378 324 q-104 225 -105 512v254q84 -47 170 -66q43 129 238 635q33 -86 116 -250q31 72 101 217q70 -135 106 -190q70 -106 142 -160q82 68 164.5 133.5t191.5 97.5l-2 -8q-4 -68 29 -106q59 74 237 162q254 127 268 135q-66 -102 -67 -183q121 74 276 183q-61 -125 -123 -252 q-66 -152 -57 -268l6 -82q59 -37 150 -33l-131 -328l45 -67l202 47q-27 -76 -98 -172l76 -58q41 0 68.5 36t31.5 81l-10 -121q84 -18 145 -14q27 23 82 84q9 -20 9 -49zM432 1317q-23 -39 -104.5 -100.5t-118.5 -61.5q-39 0 -72 68q-35 -18 -86 -47l49 55q-25 23 -62.5 90.5 t-37.5 91.5q0 18 31 68q35 57 39 73q6 -2 34.5 -25.5t53.5 -23.5q18 0 45.5 16.5t46.5 16.5q68 0 112 49q-29 -59 -28 -98q0 -55 22 -103q29 -55 76 -69zM449 -147q-100 -106 -240 -179q-35 12 -70 82q-29 -20 -84 -65q2 29 45 73q-29 16 -64.5 79t-35.5 98q0 20 31 71 q35 59 39 76q43 -29 98 -65q66 25 197 79q-8 -20 -33 -57l16 -141q33 -26 101 -51zM2271 385l-121 -2q-156 -2 -268 98q47 49 82 121q-18 0 -54 -6t-55 -6q-51 0 -70.5 21.5t-19.5 78.5q0 63 41 146q37 66 74 133h-117q-2 31 -8 93t-6 93q0 115 23.5 190.5t89.5 174.5 q-162 -102 -420 -232q-37 41 -45 98q-74 -6 -174.5 -143t-173.5 -137l-56 166q-39 -35 -119 -101q-66 45 -135 140q-96 131 -114 153q-33 -51 -76 -204q-43 -162 -76 -224q-59 -104 -158 -104q-23 0 -47 6v-121q0 -90 85 -365.5t136 -340.5q29 -41 136 -80q133 -51 157 -66 q-88 -76 -266 -221q76 25 178 111q141 121 162 135q33 -41 90 -156q49 -98 90 -137q63 -57 160 -55q8 33 31 100q106 -31 149 -31q51 0 88 35l-82 68l533 100q-41 18 -84 51q119 96 237 195q144 119 203 225zM786 -160l-16 23l-57 -39l14 -23z" />
<glyph unicode="G" horiz-adv-x="2349" d="M2187 340q0 -72 -10 -123q-6 -25 -14 -67q-154 82 -154 137q0 18 13.5 46.5t13.5 35.5q0 8 -6 12q18 -8 79 -14q53 -4 78 -27zM1174 813q0 -49 -44.5 -78.5t-95.5 -29.5q-20 0 -59 12t-60 12q109 111 191 234q0 -20 34 -71.5t34 -78.5zM844 1116q-4 -39 -33 -74 q-31 -41 -66 -41q-27 0 -65.5 25t-61.5 25q-27 0 -59 -25q41 49 80 98q51 57 106 58q31 0 53.5 -23t45.5 -43zM2286 -283q-268 33 -512 33q-18 33 -74 33q12 0 -105 -12q-20 23 -49 22q-45 0 -133 -37l39 58q-27 16 -78 16q-358 0 -776 -197q49 53 158 146q-47 37 -178 37 l59 41q-76 39 -238 39l58 41q-72 16 -279 22l80 37q-117 41 -238 41q451 137 822 129q20 12 26 45q4 25 2 65q-4 59 -4 56q0 90 33 151q59 -39 105 -39q31 0 57 29q20 27 41 51q8 -4 47 -37q27 -23 53 -22q18 0 29.5 20.5t30.5 20.5q23 0 56.5 -20.5t53.5 -20.5 q29 0 80 17.5t76 19.5l-2 -27q-2 -45 65 -78l-41 -84l17 -98q106 18 159 119q43 82 43 201q0 137 -77 268q-82 141 -207 180q-49 -115 -62 -121q-76 -16 -149 -35q94 92 115 168q-131 -18 -234 -67q37 39 117 104q-154 78 -238 78q61 31 72 35q41 27 57 55q43 -76 131 -115 q82 -35 172 -28l99 8q14 27 14 59q0 76 -79 162t-161 86q-25 0 -45 -8q37 47 78 68l-37 75q51 -33 205 -186q10 10 10 59q0 82 -75 236q35 -23 75 -74q57 -72 70 -82q14 27 22 78q10 63 17 80q12 -35 24.5 -66.5t65.5 -58.5q-12 -35 -51 -70q-45 -41 -60 -65 q-29 -49 -28 -127q0 -135 61 -236q6 -12 148 -192q31 49 30 129q0 63 -65 121q-57 45 -113 90q8 4 21 4q23 0 65.5 -14.5t65.5 -14.5v15q4 66 -29 145q-31 70 -61 139q74 -35 106 -117q37 57 37 119q23 -45 27 -127q0 12 0 -131l135 199l-4 -31q0 -51 51 -51q29 0 61 18 q-23 -43 -80 -120q68 0 119 -21q-25 -139 -20 -229q-70 6 -108 61t-38 125q0 39 13 72q-90 -80 -115 -256q-10 -76 -12 -355q-4 -240 -37 -372q131 -53 399 -146l-57 2q-123 0 -221 -22q39 -31 145 -174q91 -119 152 -144zM541 666q-27 -41 -52 -84q-49 -76 -81 -76 q-55 0 -105.5 50t-60.5 106q12 -4 26 -5q23 0 65 13.5t64 13.5q27 0 64 -25q45 -31 59 -36q11 12 21 43z" />
<glyph unicode="H" horiz-adv-x="1714" d="M1645 -76q-90 -117 -125 -141q-61 -47 -174 -47q-166 0 -273 112q-18 -47 -29 -118q-10 -61 -20 -123q-10 23 -57 213q-35 127 -105 190q-51 -39 -59 -114q-12 -109 -19 -127q-78 74 -92 249q-8 137 -18 277q-20 131 -117 133q-369 -324 -549 -346q121 20 174 188 q27 84 58 342q29 225 71 306q37 70 125 120q35 23 146 70q78 33 90 57q29 57 67 181q37 113 68 167q51 86 141 138q-74 -104 -145 -246q-94 -178 -94 -258q0 -16 41 -109.5t41 -109.5q0 -211 -195 -426q25 -27 47 -53q35 -35 57 -35q57 0 174 48t175 48q45 0 159 -39 q-37 -37 -129 -98q45 -18 183 -21q117 0 174 -45l-146 -96q53 -23 168 -160q99 -119 187 -127z" />
<glyph unicode="I" horiz-adv-x="1503" d="M1466 791q0 -336 -26 -494q-39 -231 -168 -463q-20 -37 -141 -134t-152 -97l-195 6l70 45l70 -12q55 0 64 51t18 100l12 -39l12 51q0 -33 -12 -81q-16 -70 -17 -80h17q31 0 50 29.5t19 62.5q0 10 -43 96q-37 76 -53 100q-41 -57 -55 -73q-35 -41 -68 -66q-37 23 -63 51 q-8 -76 -37 -221q-43 4 -74 70q-8 23 -32 106l40 -69l13 43q-10 -76 37 -131q25 78 45 215q-27 55 -35 67q-25 41 -45 58q-25 -33 -70 -101q29 74 66 113q66 -43 190 -137q49 31 74 100q59 -18 90 -104q41 -121 53 -136q76 35 119 119l-51 39q63 139 51 184l-31 -26l19 67 l-33 9q-68 0 -68 -60q0 -12 4 -29l-12 64q-39 -37 -123 -100l4 79q0 51 -133 160q-66 -2 -123 -203q-31 4 -92 111t-123 105l-110 -195q63 -41 106 -107q47 -72 45 -143v-10q-90 199 -157 201l-109 -146q0 -41 67.5 -111.5t110.5 -70.5q41 0 70 24q23 -31 64.5 -52t78.5 -15 q-33 -10 -73 -10q-117 0 -213 63q-109 72 -109 178q0 20 4 43l-74 23q-25 66 -93 183.5t-93 178.5q-43 104 -43 205l18 88l35 -12q33 84 37 217q2 113 4 223q43 35 150 180q133 176 182 234q104 119 168 119l57 -37q25 14 54 57q39 61 45 68q49 0 168 -137l49 36 q74 -90 84 -104q45 -59 69 -111l62 64l114 -250q88 -174 156 -209q0 -16 7 -54t7 -56zM1198 6q-35 -61 -108 -149q8 35 30 100v-10q0 -16 10 -29q29 49 68 88zM930 57q0 -76 -41 -137q20 55 14 113q0 -12 12 -25q15 12 15 49zM870 -80q-43 33 -73 94q6 10 14 19h2 q4 -8 14 -25q14 12 13 31q-1 -33 30 -119zM492 -332q-57 29 -111 99l41 -37q10 23 10 43q0 29 -14 39q2 2 4 2q19 -1 70 -146zM1425 866q-49 -47 -73 -94q20 -25 59 -70q14 53 14 164zM1366 899q0 131 -135 195q-29 -61 -98 -176l-9 131q16 33 17 63q0 76 -99 121 q-29 -29 -65 -94q-41 -72 -41 -101q0 -18 35 -86q39 -76 45 -98q0 2 33 25q20 14 38 14t148 -119q-20 70 -21 84l7 23q18 -29 49 -90q6 37 26 102q12 -12 11 -39q8 31 28 88l6 -6q0 -164 -90 -191q115 23 115 154zM1438 436l-39 -37q-8 29 -8 164q0 111 -97 139l-37 -51 q-6 10 -51 103q-14 -53 -28 -105q-25 -68 -58 -86q-6 12 -6 29q0 33 43 86t43 88q0 29 -106 100q-27 -27 -58 -75q0 -35 21.5 -99.5t21.5 -97.5q0 -16 -10 -31q-37 90 -37 203q-20 -45 -76 -115l-2 23q-2 29 21.5 78t23.5 71q0 33 -52 122t-81 112q-61 -63 -61 -203v-25 q0 -82 -17 -127q-47 61 -143 183q39 12 70 -19q51 104 141 217l51 -12q2 23 15.5 67t13.5 64q0 29 -52.5 81t-82.5 65q-25 -33 -47 -66q-33 -45 -33 -68q0 -6 39 -42.5t37 -81.5l-2 -17q-88 119 -162 178q10 6 84 -4q27 55 39 74q31 51 57 51q14 -10 180 -176q14 27 49 51 q49 0 99.5 -65.5t83.5 -73.5v121q0 27 -27 80l-90 -37q-2 4 -64 117q-47 86 -83 86q-16 0 -35 -15q-29 -23 -33 -24q-25 49 -141 163q-29 -23 -29 -71q0 -25 10 -74t10 -68l-22 -63q-23 35 -57 113l-13 -37q-10 29 -22.5 56.5t-40.5 43.5q-35 -33 -66 -127l-10 33 q0 -25 -14 -55q-23 -47 -25 -54q-27 27 -90 52q-29 -41 -80 -134q20 -43 53 -135q-20 8 -50 34t-50 32q-66 -135 -66 -164q0 -23 19.5 -62.5t19.5 -62.5l62 41q-2 10 -16.5 35.5t-14.5 32.5q0 16 23 28q31 -35 30 -71q0 -20 -10 -37l12 -4q12 0 64 96q31 57 63 115 q-53 0 -67 139q43 -10 49 -55q10 -61 25 -82l38 39l41 -25q20 51 66 121q-41 29 -62 119l58 -64v27q0 53 10 88q14 -29 14 -51l23 36l6 -34q0 -47 -43 -121t-43 -103q0 -16 24.5 -50t24.5 -128l4 -6q0 -18 -20 -37q-25 55 -47 111q-35 68 -86 65q-12 -39 -12.5 -81 t-20.5 -70q-12 29 -10 63q-47 -92 -47 -88q0 -23 43 -104q59 -106 59 -107q-35 2 -88 86t-98 86q-31 -49 -93 -145q37 -25 75 -92.5t38 -112.5l-6 -22q-45 49 -88 98q-55 57 -103 86q-31 -82 -30 -82q0 -27 92 -104q68 -57 117 -93q27 39 94 101q33 0 49 -11l47 125 q18 -39 19 -63q0 -23 -20.5 -50.5t-37.5 -49.5q-12 25 -45 24q-33 0 -61 -51q-45 -74 -47 -76q-66 23 -142 84q-63 53 -125 105q16 -66 68 -162q68 -127 82 -158h-55l-9 -53q47 -78 95 -154q61 -92 143 -90l39 94q-25 43 -84 119l-8 -49q-31 88 -111 121q-2 4 8 4h21 q51 4 92 -33q23 -20 63 -80q70 80 152 164q47 0 108.5 -57.5t79.5 -106.5q37 53 74 109q27 27 111 31q72 164 190 163q88 0 135 -151q35 -113 35 -258q0 -33 -4 -58l135 142v71l-49 19q39 47 68 131q23 69 43 141zM1200 201q-68 150 -133 186q-131 -133 -131 -178 q0 -16 26.5 -41t30.5 -35q-2 106 13 152q10 -45 22 -92q12 -57 12 -97q12 23 21.5 34t25.5 17q37 19 113 54zM1053 80l-45 45l-13 -14l43 -43zM227 823q0 25 -43 73t-67 58q2 -90 26 -258q84 98 84 127zM1006 1329q0 -47 -25 -96q-51 51 -80 164q29 -45 78 -137q27 42 27 69 zM1219 895h-23v59h23v-59zM1067 924l-18 -6l-68 174h20zM1380 303l-86 -94l-14 8l88 96zM549 920h-23v84h23v-84zM989 510l-78 -201l-18 8l78 193h18zM502 766q-39 43 -66 133q0 -18 43 -70q20 53 21 158q0 -23 -3 -69t-3 -68q0 -37 8 -84zM598 788l-29 -73l-18 6l29 67h18z M885 348q-35 2 -35 -37q0 -16 8 -39q2 45 -46 112t-91 67q-29 0 -74 -74q-37 -61 -49 -105q6 33 47 138q37 98 37 116q0 41 -47 95q-41 43 -86 69q-45 -20 -60 -51q12 27 48 76q100 -47 163 -150q86 -139 127 -178q14 14 13 37q22 -23 45 -76zM612 494q0 -70 -22 -119 q-70 27 -90 139q0 -20 45 -39q8 -4 30 -51q37 37 37 70zM365 590q-59 35 -136 137q18 -23 54 -61q4 6 4 14q0 -4 -31 86q18 -35 57 -61q27 -19 52 -115zM371 365h-23v57h23v-57zM434 231h-18l-37 115h18zM326 -55q-18 6 -123 110q53 -29 82 -47q10 10 10 37q31 -59 31 -100z " />
<glyph unicode="J" horiz-adv-x="1781" d="M1714 360q0 -53 -84 -100q-76 -43 -147 -43q-18 0 -31 2l-20 -49q0 -51 53 -98l94 -82q-86 -18 -137 -17q-16 -139 -154 -239q-129 -94 -276 -94l-105 36l-67 -24l-119 61l-184 -86l-250 103q-20 80 -43 159q-23 39 -176 39q80 57 127 156q63 133 90 166q-31 25 -82 80 l-53 -21l12 49l-27 23l-135 -23q61 53 172 226l-47 -4q82 131 100 258l-75 -47q37 119 100 118l35 95q-45 72 -86 114l86 -22l94 98l-6 -70l6 -41l76 33l-47 -63q47 -27 73 -54l-86 -14l80 -174l203 549q10 27 -33 94q-74 -14 -125 -49q18 33 103 96q74 57 86 101l61 -62 q31 45 51 111q2 -59 15 -101l149 86l-22 -53q29 -20 86 -63h-111q96 -61 121 -127q-74 35 -113 61q-20 -66 -20 -119q0 -4 53 -135q61 -145 63 -153q27 53 101 159l-58 -252l197 -401q63 0 143 86q92 -51 185 -104q104 -69 104 -175zM1034 1423q-6 29 -57 60q-66 37 -76 49 q41 14 105 14q-29 0 -80 25q16 14 32 43q-45 -29 -137 -86q-14 25 -12 55q0 -37 -39 -55q-23 10 -47 37v-9q0 -51 -156 -98q20 4 43 4q18 0 54 -4t53 -4q0 -16 8 -49t8 -51q16 33 51 100q29 -35 86 -100l76 112q29 -18 88 -43zM1135 1114q0 16 -8.5 27.5t-8.5 15.5 q-18 -20 -43.5 -66.5t-25.5 -68.5q0 -18 32 -49q4 14 31 74q23 51 23 67zM1577 535v22l-70 12v-20zM1460 543v57h-22v-57h22zM1702 367q0 55 -61.5 113.5t-114.5 58.5q-10 0 -21 -2q37 -63 74 -129q47 -88 39 -138q25 10 54.5 42t29.5 55zM1479 510v20l-58 15v-21zM1417 557 q0 6 -2 19.5t-2 19.5q0 -6 -25.5 -14.5t-29.5 -12.5q27 0 55 -28q4 6 4 16zM1395 535q-31 31 -49 30q-8 0 -33 -23.5t-31 -33.5q10 -14 31 -41q29 21 82 68zM1604 270q0 88 -51.5 161t-135.5 73q-47 0 -108 -55q29 -45 59 -91q43 -66 45 -90v29q0 14 -2 46t-2 46 q0 59 27 103q0 -18 -2 -54.5t-2 -54.5q0 -164 73 -164q48 0 99 51zM1567 -12q-70 57 -195 182q25 -59 62 -182h133zM1294 252q-57 100 -104 100h-80q78 -51 184 -100zM1102 352l-29 43l-16 -10l28 -45zM1417 145v70q0 35 -130 314.5t-161 312.5q18 -59 19 -94q0 -20 -4 -35 q-59 164 -117 325q-104 293 -104 353q0 8 4 12l-54 -62q-29 35 -90 86q6 -47 6 -100q0 -180 -75 -491q25 188 61 567q-12 -31 -49 -86q-12 41 -39 125l-74 -426q-47 -252 -110 -414q-12 16 -11 47q6 59 7 49q0 20 -9 39q-70 -201 -96 -399q-8 -45 -70.5 -96.5t-70.5 -83.5 q29 29 61 51q-66 -94 -213 -270h109q16 25 55 71q-14 -47 -53 -80l29 -43q57 59 125.5 97.5t136.5 74.5q27 -33 67 -34q-8 16 -8 34q0 133 129 236q121 98 250 98q37 0 123 62q25 -2 158 -129q119 -117 147 -156q-8 23 -47 100q33 -10 55 -55q31 -58 43 -70zM1053 307 l-13 109h-22l14 -109h21zM1081 322v14q-29 -43 -51 -43q-45 0 -45 49q-25 -2 -24 -45q0 -8 4 -14l92 -15q26 19 24 54zM520 799l-8 18l-70 -41l7 -18zM543 766q0 8 -6 8t-21.5 -8t-21.5 -8q10 -16 30 -45q19 33 19 53zM1419 -45q0 115 -92 232.5t-205 117.5q-35 0 -61 -55 q74 -74 125 -207t51 -240q0 -49 -14 -73q78 12 137 78.5t59 146.5zM995 403q-10 -6 -41 -36q-49 27 -65 26q-35 0 -90.5 -28.5t-63.5 -57.5q92 23 209 23q20 0 35.5 25t15.5 48zM258 889l-16 12l-62 -67l17 -13zM479 748q-98 -20 -86 -21q-6 0 -10 4q16 18 33 35 q25 23 39 25q-2 8 -47 114q-37 86 -37 105q0 14 20 14q10 0 32.5 -5t33.5 -5q-41 16 -62 39l35 41l-76 -37q0 20 5.5 57t7.5 55q-57 -88 -95 -88q-18 0 -36 11q53 -59 65 -82q25 -41 25 -103q0 -29 -11 -47q-8 39 -26 113q-6 -45 -33 -133t-33 -135q4 -4 4 -13 q0 -20 -32 -47q-41 -35 -45 -41q25 12 73 37q-59 -115 -192 -270q88 4 135 53q41 59 84 117q-6 -14 -48 -81t-42 -79q0 -8 24 -51q80 100 133 162q27 -23 64 -23q-8 12 -8 35q0 45 39 127q32 68 67 117zM1221 -182q0 104 -58 258q-70 180 -151 180q-59 0 -103 -164 q-33 -131 -32 -217q0 -223 135 -223q82 0 141 41q68 47 68 125zM936 330h-53q-86 0 -191 -72q-113 -76 -112 -158v-63q29 -12 82 -39q27 59 133 166q114 113 141 166zM975 264l-17 2q-74 6 -177 -100.5t-103 -179.5q0 -12 43 -103.5t43 -101.5q0 -27 -37 -62q14 -6 55 -30.5 t58 -24.5q10 0 30.5 7t28.5 10q-39 92 -39 206q0 209 115 377zM387 369l-12 84h-23l13 -84h22zM338 420l-14 57h-21l14 -57h21zM371 342q0 47 -56 76q-43 -23 -43 -76q0 -51 43 -74q18 16 37 35t19 39zM295 426q-74 -10 -74 -72q0 -43 49 -71q-14 23 -14 53q0 63 39 90z M651 -20v22l-106 12v-20zM510 -25l-14 48l-19 -7l15 -41h18zM752 -219q0 59 -74 104q-10 6 -123 56l55 8q49 -27 113 -80q-20 102 -78 102h-100q-14 -12 -15 -41q0 -4 51.5 -86t49.5 -143v-10h6q23 0 69 35t46 55zM528 -57v22l-63 12v-20zM461 -18v18l-51 12v-16zM444 -41 q-16 27 -49 27q-100 0 -119 -174q10 43 68 90q51 41 100 57zM616 -274q0 27 -42 119t-62 92q-215 0 -215 -156q0 -102 106 -103q12 0 27 3q-14 29 -14 69q0 61 45 174q-2 -16 -12 -90q-10 -53 -11 -88q0 -106 99 -106q79 0 79 86zM985 825q-27 12 -78 35q-63 -55 -63 -145 q0 -35 14 -105.5t12 -107.5v-23l-49 555q0 -45 25 -198q20 35 20 110h56q45 -66 63 -121zM1102 481h-19l-63 164l18 6zM399 877h-18l-39 102l16 6zM659 1022q-45 -365 -137 -754q-59 47 -59 86q0 25 20 52q-8 -23 -8 -48q0 -74 78 -118q-14 49 -14 84q0 51 20 131 q14 63 31 129q36 182 69 438zM338 735l-12 -192h-23l12 192h23zM958 850q0 18 -29.5 47t-49.5 37v-60q34 1 79 -24z" />
<glyph unicode="K" d="M2048 799q0 -59 -63 -103q-55 -29 -113 -59q31 -23 63 -43q35 -27 35 -59q0 -143 -125 -230q-109 -74 -246 -74q-18 0 -81.5 -56t-102.5 -56q-16 0 -42.5 15.5t-45.5 15.5q-39 0 -125 -60q39 86 84 86q10 0 42 -5t56 -5q100 0 299 129q223 145 222 272h-224q6 47 131 111 q170 88 173 90v45q-35 27 -95 53q-49 23 -98 43q66 43 193 133q2 59 -80 60q-14 0 -48 -2t-47 -2l-34 2q41 37 79 114l-12 74q-61 -14 -102 -84q-33 -63 -66 -125q-66 31 -98 64q-43 -55 -55 -144q-10 -76 -21 -151q-39 6 -166 102q-45 -37 -45 -162q0 -31 4 -100 q2 -59 2 -84l-4 -37h-65q-23 0 -55.5 27t-90.5 20q-10 -27 -10 -63q0 -63 72 -137q82 -90 100 -135q98 66 156 200q55 129 108 256q90 164 258 293q-106 -106 -186 -313q-104 -264 -145 -332q-18 -29 -164 -162q-133 -121 -133 -143q0 -27 31.5 -91.5t31.5 -82.5l-22 -137 q-33 41 -117 216t-137 250q-88 125 -172 125q-211 0 -463 -122q287 188 547 170q29 100 28 184q0 25 -35 57q-27 25 -53 47q-27 -33 -88 -32q-61 0 -123 40q-70 45 -69 105q0 20 22.5 38.5t40.5 33.5q-39 59 -80 116q-14 33 -14 146h18q33 0 62 12q-47 94 -47 211 q18 10 86 74q61 57 80 57q27 0 55 -31q20 -25 41 -49q51 29 102 29q0 -55 -31 -178q92 -39 93 -105v-22q-2 -14 -2 -21q0 -53 116 -57q18 -14 19 -55q0 -35 -73 -154t-101 -123q43 127 108 215l-12 72q-25 2 -68 -22.5t-63 -24.5h-14q4 25 36 118q27 82 27 107q0 12 -41 12 q-23 0 -50.5 -16t-51.5 -31v70q0 23 26.5 68.5t30.5 72.5q-45 -2 -102 -67q0 -2 0 65q0 45 -45 86q-25 -16 -45.5 -70.5t-38.5 -64.5q-41 -23 -41 -49q0 -33 22 -94q25 -68 29 -95l-68 13q-10 -8 -10 -47q0 -25 53 -95l74 -90q-8 -8 -96 -51q2 -47 59 -74q94 -43 96 -45h72 q-115 270 -106 473v17v88q10 -326 225 -608q109 125 203 122h12q-96 -39 -151.5 -117.5t-55.5 -179.5q0 -96 76 -198q70 -86 139 -170q55 68 55 143q0 74 -79.5 152t-79.5 112q0 35 47 85.5t82 50.5q18 0 59 -22t57 -26q10 25 11 78q0 33 -5.5 96.5t-5.5 83.5q0 127 68 127 q41 0 69.5 -32.5t55.5 -63.5q23 82 43 164q33 123 88 123q33 0 80 -47q45 66 92 131q57 78 135 76q27 -78 4 -181q49 -16 101 -34q59 -20 59 -72q0 -49 -40 -89t-89 -50q6 -4 84 -47q45 -27 45 -78zM813 291q-18 -68 -88 -160q-78 -109 -133 -108q-33 0 -74 79 q-76 -80 -127 -79q-43 0 -80 63q-76 -82 -145 -127q-35 57 -35 115q-72 0 -115 16q0 303 228 283q10 18 6 47q-8 45 -8 47q102 51 190 51q41 0 55 -16q16 16 27 45q16 47 18 51h99q31 0 84 -59q43 -47 67 -90q-76 43 -229 118q-6 -6 -2 -53q6 -57 6 -59h-260q-8 0 -8 -6 q0 -2 47 -50q-14 -37 -113.5 -56t-111 -64.5t-78.5 -120.5q18 -39 63 -39q47 0 109 31q0 -16 -11.5 -49t-11.5 -52l4 -26q31 23 81 80t81 79q0 -80 31 -121q33 6 96 68q72 72 96 84l23 -137q76 2 125 105.5t94 109.5z" />
<glyph unicode="L" d="M2015 1264l-24 -148q2 78 -136 215h93q26 -18 67 -67zM1724 1313h-282v28h282v-28zM2038 705h-29l-31 339h27zM2054 233h-29l-16 330h29zM1292 1313h-393v28h393v-28zM813 1296l-315 33v27l315 -33v-27zM1970 244q0 -287 -153 -285l-1670 16q-68 133 -67 441v420 q0 209 33 305q57 164 223 162l1495 -17q154 -2 154 -641q0 -133 -7.5 -279.5t-7.5 -121.5zM317 1343h-75v29h75v-29zM227 1335l-153 -102l-13 22l152 101zM1518 -96h-299v28h299v-28zM53 825h-26v314h26v-314zM1118 -96h-299v28h299v-28zM53 709l-33 -332h-26l33 332h26z M653 -96l-362 16v29l362 -17v-28zM223 -96q-16 -8 -41 -8q-51 0 -108.5 42t-57.5 93q0 104 21 194q2 8 8 19q0 8 0 -105q0 -243 178 -235zM1399 979h-29l-16 -121h26zM1333 963h-22l-45 -97l22 -10zM1919 76v1145q-82 2 -911 2q-115 0 -342.5 23.5t-337.5 23.5 q-145 0 -191 -160q-25 -82 -24 -281l2 -630q111 119 223 235q125 143 172 273q-111 -4 -111 79q0 29 6.5 78t6.5 72q8 -6 84 -43q51 -25 73 -55q18 59 23 69q16 37 37 60l12 -152q0 -4 -37 -111.5t-43 -117.5q88 39 264 102q123 18 244 35q158 25 211 92l-51 53h-4 q-4 0 -8 17q-2 12 0 18l73 144l15 -41l28 41q39 -18 86 -64q-6 18 -76 86l27 2q55 0 64 -63q8 -92 26 -117q-2 -100 -315 -223q262 25 295 28q158 27 282 97q-109 -135 -344 -191l-446 -74q-270 -53 -428 -180q158 -23 313 -45q240 -35 270 -78q-119 -61 -301 -45 q16 -68 17 -188h1046q18 0 44 32t26 52zM549 762l-35 94l-25 -8l37 -86h23zM469 729v123h-27v-123h27zM784 102q0 23 -19.5 57t-19.5 40q-16 -27 -16 -58q0 -49 23 -63q-10 -10 -17 -10q-10 0 -39 45q-35 55 -49 69q-16 -16 -22 -41q31 -45 139 -118q0 12 10 37.5t10 41.5z M752 4q-49 27 -99 53q-61 41 -61 86q0 23 10 32t21 22h-117q-57 0 -313 -193h559zM1624 381q2 25 -33 106q-8 -31 -8 -69q0 -47 14 -107q-86 51 -272 115q16 -31 49 -47.5t66 -30.5h-8q-43 -2 -84 34t-41 79q0 12 4 24q2 -2 6 -2q6 0 26 43q-8 10 -32 11q-33 0 -62 -15 q10 14 20.5 29.5t35.5 15.5q18 0 23 -8t24 -8q18 0 40.5 23.5t39.5 23.5q31 0 81 -43q41 -35 64 -70q8 10 8 25q0 20 -16 37q55 -33 55 -172v6zM1563 86q0 25 -17 64q-41 -76 -53 -93q-33 -35 -92 -34q-113 0 -168 36q0 8 22.5 20.5t24.5 14.5q-14 14 -63 15q70 33 90 73 q0 -6 -11.5 -26.5t-11.5 -34.5q0 -10 4 -19q43 55 152 148q8 -25 37 -37q35 53 47 53t28 -12q-25 -16 -30 -29q-16 -31 -19 -35q29 -27 60 -26v-78zM516 918l-16 -21l-56 37l15 22zM389 729h-27v139h27v-139zM885 115l-21 -62l-22 8l20 54h23zM1565 358v74q0 33 -62 80 q-55 41 -94 51q45 -68 113 -129q-51 33 -156 84q-8 -10 -8 -35q0 -10 2 -29.5t2 -29.5q154 0 203 -66zM1444 186l-17 17l-88 -86l17 -19zM1503 104l-12 54q-68 -39 -211 -101h156q22 16 67 47z" />
<glyph unicode="M" d="M1855 1151q0 -55 -51 -117q-43 -49 -88 -98q8 33 60 119q49 80 49 88q0 29 -43 112q-41 -35 -41 -63q-8 2 -53 47q-16 -23 -52 -63q6 23 6 59q0 20 -3 58t-3 57q8 -8 11.5 -38t33.5 -46q16 -10 25 -13q18 0 41 21q35 25 41 29q4 -14 39 -78q28 -51 28 -74zM2001 938 q-16 -8 -44 -33.5t-44 -34.5l-121 25q14 -2 35 -2q127 0 174 45zM2038 920q-27 -57 -60.5 -77t-97.5 -20q-90 0 -176 64q-25 -37 -50.5 -75t-76.5 -38q-16 0 -33.5 -15.5t-40.5 -15.5q-10 0 -36.5 11.5t-26.5 19.5l16 12v11q0 25 17 77l-158 -4q-41 0 -78 19q-57 33 -70 35 q8 8 54 63q31 39 59 53q-29 47 -45 183q-16 113 -66 153q23 0 71 11.5t73 11.5q12 0 27.5 -6.5t45.5 -6.5q41 0 78 -36q20 20 62 143q31 -33 73 -68q-20 4 -36 21q-6 -14 -39 -70q-25 -43 -25 -73q-25 14 -69 49q-25 -2 -25 -47q-57 23 -176 55q2 -25 0 -68q-2 -49 -2 -67 q0 -92 86 -187q-33 -29 -82 -94q47 -45 170 -45q51 0 61 35q-2 -4 -2 -16q0 -27 13 -80q16 -63 30 -64q57 0 113.5 51.5t52.5 108.5q72 -61 119 -76q31 -8 143 -8q80 0 107 70zM815 1114q-16 0 -51 -6t-51 -6q41 0 55 14q-18 10 -43 39q-35 43 -37 45q53 23 53 92 q0 12 -4 23h17q18 -2 30 18q-31 20 -61 41q-37 25 -68 25q-37 0 -94 -29q16 18 35.5 39t44.5 21q23 0 82 -23q70 -25 92 -29q-10 -49 -33 -104q-31 -74 -61 -78q41 -21 94 -82zM688 1102q-88 -8 -88 -55q0 -12 6 -29h-2q-20 0 -39.5 20.5t-19.5 40.5q0 16 11 28.5t11 18.5 t-4 15q74 -37 125 -39zM575 1436q-47 2 -71 26q-45 -31 -45 -63q0 -8 2 -28.5t2 -35.5l-2 -14q-10 0 -31.5 -9t-38.5 -9q-23 0 -31 10t-16 22q-10 -10 -10 -16q0 -57 51 -163.5t96 -129.5q-12 8 -57 62.5t-49 54.5q-49 0 -49 -33q0 -4 2 -10q-20 -14 -39 -29.5t-19 -46.5 q0 -25 13 -57q27 20 30 63q0 -18 9.5 -55t9.5 -55q-76 70 -76 94q0 55 33 92q8 6 80 61q-45 49 -45 117q0 39 18 74l49 -23q29 18 60 74q43 76 49 84q28 -22 75 -57zM1440 115q-20 -14 -180 -80q-129 -53 -125 -76q-27 0 -76 8t-72 8q-20 -25 -22 -108q-2 -72 8 -115 q-231 129 -309 303q-23 -20 -41.5 -41.5t-16.5 -52.5l-51 -35q-39 41 -89 132.5t-81 127.5v15q-2 133 80 198q-14 20 -47 38t-58 18q-59 0 -157.5 -82t-110.5 -142q-57 2 -92 72q53 102 131 170q94 78 197 78q94 0 157 -49q27 98 80 180q70 109 148 109q25 0 33 -15.5 t16 -34.5q18 18 53 29q-16 -27 -34.5 -55.5t-18.5 -57.5l2 -28q29 18 92 49h12q39 -2 116 15.5t112 17.5q29 0 69 -17l66 -24q-43 -27 -80 -62q14 -8 24.5 -32.5t24.5 -32.5q-23 -23 -65 -23q2 -25 -15 -41q53 -53 107 -106q57 -66 57 -127q0 -18 -4 -39q45 -59 55 -68 q31 -29 70 -28q17 0 35 4zM1311 92q-61 86 -62 141q0 29 15 54q-106 115 -209 162q37 72 80 90v123q-172 0 -326 -144l-10 37q0 29 16 55q-25 -12 -70 -43q-16 31 -26 86q-14 70 -21 88q-92 -102 -151 -305h-12q-37 0 -46 17q-16 27 -24 32q-29 16 -113 17 q-109 0 -185.5 -58.5t-96.5 -164.5q55 106 116.5 149t173.5 43q102 0 185 -72q-18 -14 -65.5 -122.5t-47.5 -133.5q0 -20 40 -75.5t46 -77.5q4 6 31 71q16 39 63 41q18 -20 27 -20q6 0 20 31q10 18 21 37q98 -190 211 -271q6 16 16 88q8 51 31 80q12 -2 68 -12q41 -8 65 -8 l-63 65q39 0 90 -18q43 -16 86 -31q-27 25 -27 41q0 12 4 18q68 -22 150 -10z" />
<glyph unicode="N" d="M1886 1061q-8 -190 -28 -270q-47 -174 -168 -168q-20 -25 -74 -25q-27 0 -77 8t-66 8q-61 -70 -189.5 -140.5t-171.5 -121.5q-74 -88 -74 -252q0 -76 23.5 -222t25.5 -220q-92 -51 -126 -51q-59 0 -60 143q0 41 5 102.5t5 67.5v412q0 63 -97 181t-159 118 q-80 -63 -118 -64q-41 0 -50 31q-70 -2 -129 64l-47 -48q-47 31 -47 82q0 18 8 37q-70 12 -94 53q-12 16 -35 109l160 311q41 0 51 -18q23 78 111 229q100 174 151 174q14 0 36 -17.5t30 -31.5q29 33 70 33q27 0 104 -41l10 2q16 0 43 -23q35 -33 41 -34q-4 29 -4 108 q33 14 98 -12q23 47 60 47q76 0 153 -143q2 53 35 53q10 0 21 -8l18 49q145 -20 189 -41q23 -12 49 -59q33 -57 106 -115q119 0 119 -129q0 2 -8 -111q32 -20 100 -57zM1520 834h-11q-86 4 -137 -95q-33 -86 -65 -170q53 16 90 70.5t30 110.5q23 47 50 59q35 15 43 25z M1333 844l-20 14l-103 -119l21 -16zM1174 782l-23 11l-53 -91l22 -10zM1286 684l-22 14l-191 -231l23 -16zM940 741q-74 -55 -154 -49q0 -23 48.5 -77t72.5 -64q33 65 33 190z" />
<glyph unicode="O" d="M2032 942q0 -47 -31 -137t-31 -135l31 -62q-170 -205 -258 -280q-143 -119 -336 -172q0 -90 143 -248q123 -135 226 -195l-21 -73q-168 125 -387 399q-96 -203 -258 -295q-152 -88 -387 -88l29 53l-111 15q37 41 74 79q25 35 39 111q-127 25 -305 0l16 35 q-68 43 -193 141q-8 29 -106 74q-109 49 -133 78l47 14q-43 41 -80 61q12 10 119 29q84 16 84 70q0 23 -10 49q152 78 303 96l-152 144q-90 96 -86 178l31 12q-33 47 -66 152l43 75q-14 115 -14 99q0 51 37 92q-25 109 -94 323q166 -33 221 -94q14 -2 20 8.5t21 8.5 q94 -63 143 -113l49 49q33 -51 111 -145q45 43 63 80q41 -45 117 -144l68 33q49 0 69 -64l35 -96l49 47l29 -32q33 90 100 227q88 174 109 221q76 -98 131 -221q68 -143 67 -244l-28 -86l57 -41q76 72 117 129l41 -33l33 64l32 -31q25 31 84 78q-2 -29 48.5 -121t50.5 -174z M1446 8l-21 47l-22 -8l18 -39h25zM1667 -238l-102 105l-17 -19l103 -102z" />
<glyph unicode="P" horiz-adv-x="1925" d="M1413 1180l-37 -86l-22 8l37 78h22zM608 1548h-10q-49 0 -86 17q4 4 18.5 38.5t22.5 34.5q10 0 22 -28q8 -18 15.5 -35t17.5 -27zM1663 608q-14 -23 -29 -45q-20 -29 -45 -28q-27 0 -83 4t-83 4q6 0 45 29.5t74 29.5q14 0 29 -6v49zM1071 985h-8q-12 0 -119 39 q68 0 70 23q28 -23 57 -62zM1839 135q0 -16 -98 -115q-113 -111 -123 -122q-23 -31 -47 -103q-23 -63 -47 -88q-37 -37 -115 -37q-29 0 -85 16.5t-85 16.5q-76 0 -231.5 -48t-231.5 -48q-102 0 -299 55q-233 63 -233 131q0 -2 16 47t16 78q0 63 -41.5 178t-41.5 174 q0 61 47 113q8 8 96 80q0 80 -62 334l60 22v-18q-2 -31 10 -58q10 43 33 127q4 -23 0 -59q-4 -51 -4 -61q0 -23 16.5 -57t16.5 -46q0 -23 -23 -41q29 -31 29 -59q0 -8 -13 -66l23 -6q16 0 47 5t47 3v291q6 -59 21 -96q10 35 84 143q-76 -152 -76 -215q0 -20 7 -60t7 -63 l86 -45q43 109 43 264q0 78 -86 222q-92 156 -162 155q-23 0 -65.5 -4t-63.5 -4q70 14 105 31q-27 12 -60 45q-25 29 -51 55q74 -37 210 -133t210 -135q43 133 43 248q0 84 -20 151q-31 96 -93 97q-27 0 -90 -46q-45 -33 -90 -63q12 39 64 76q43 29 86 59l-80 49 q135 -14 211 -106q68 -96 135 -193q86 29 86 80q0 80 -16 90q-4 2 -82 2l-62 11q31 31 96 38q25 80 58 99q4 -70 33 -209q98 59 137 113h73q-43 -41 -49 -89q-2 -6 -2 -102q-31 25 -96 64q-82 -102 -164 -205q-39 -63 -39 -281q16 -10 56 -10q88 0 168.5 75.5t80.5 164.5 q0 16 -4 30q8 -16 47 -151q143 14 261 57q35 -31 81 -31l78 9q-43 -12 -84 -25q-51 -16 -75 -41q4 -4 67 -45q43 -29 57 -57q-158 94 -237 94q-176 0 -346 -131q-182 -139 -183 -310q0 -37 80 -84q-41 -8 -120 -36q-18 29 -123 98q-25 -94 -25 -350q0 -70 -63 -148 q-27 -31 -117 -116q80 8 203 71q115 61 165 62q106 0 166 -45t140 -48q-76 82 -303 222l-3 53q-2 106 19 217h68q27 0 141.5 -80t140.5 -80q80 0 96 49q4 10 4 107q0 18 36 104t48 86q10 0 7 -45q37 -14 130 -18t134 -21q66 -25 88 -98l-64 -31v-57q49 -23 99 -45 q61 -31 61 -78zM1677 119v155q-31 0 -99.5 4.5t-104.5 4.5q-63 0 -111 -11q10 -59 39 -137q8 37 35 113l53 -15l-14 -112q25 0 77 3t78 3q31 0 47 -8zM1565 0v29h-74v-29h74zM1374 -119q0 16 -28 39q-35 27 -41 39q-16 -16 -86 -41q-6 -2 -15 -6q14 -2 47 0v-64 q98 33 123 33zM1008 274q-12 0 -36 -6t-36 -6q-25 0 -30 7t-9 18q14 16 55 16q-23 10 -69 23q-27 -72 -27 -127q0 -33 10 -64h74q9 20 68 139zM518 256l-24 8l-19 -41l21 -10zM358 281v59h-28v-59h28zM958 -223q-92 0 -122 20q0 -39 -19 -57q18 0 55 -37q29 25 86 74z M496 63q-35 0 -35 54l-47 -31q-10 0 -41 33q0 -10 -17.5 -30.5t-17.5 -31.5q35 -16 88 -51q35 65 70 57z" />
<glyph unicode="Q" horiz-adv-x="1898" d="M1872 569q-18 -10 -146 -94q16 -23 33 -80q-18 -18 -43 -18q-29 0 -84 18q-70 25 -84 29q-8 -12 -8 -29q0 -14 5 -40.5t5 -41.5q0 -18 -39 -18q-20 0 -107 80t-108 80q-20 0 -48.5 -48.5t-47.5 -48.5q-51 0 -70 72q-12 55 -24 111q147 -55 276 -56q213 0 316 15 q0 8 14 15t17 9q-61 4 -158 2q-133 -6 -156 -6q-178 0 -295 51q31 90 170 140q16 -16 27 -76q12 -68 22 -84q33 16 76 64.5t68 62.5q25 -45 20 -117l8 -12q70 0 77 42t16 87q20 0 61 -33q27 -23 55 -47q12 8 64 51q33 29 78 35zM1153 870q0 -41 -43 -61q-35 -18 -78 -18 q-37 0 -82 27.5t-69 60.5q47 53 135 168q2 -2 78 -91q59 -66 59 -86zM1153 739q0 -125 -137 -125q-70 0 -96 66q-18 61 -37 125q70 -47 141 -47q74 0 123 33q6 -27 6 -52zM958 547q-25 -14 -45 -89t-92 -100q-8 33 -49 97q-6 2 -20 2q-47 0 -112 -81t-114 -81h-10 q-14 25 -14 65q0 31 10 54q-10 10 -8 10q-39 0 -89 -25.5t-108 -23.5q-8 16 -8 33q0 31 20 69q-23 23 -67 49q-72 41 -76 45v103q20 20 47 20q20 0 49 -39q20 -29 41 -57q25 8 65 40t64 40q18 -33 19 -115q12 0 34.5 -7t36.5 -7q8 43 33 129q33 -16 74 -78q31 -47 86 -51 q10 18 18 76q10 76 13 84q49 -2 102 -54q59 -57 86 -63q-80 -45 -264 -62q-139 -10 -281 -20q119 -23 226 -23l96 -2q118 1 237 62z" />
<glyph unicode="R" d="M2001 236q0 -283 -37 -398q-68 -215 -285 -215q-63 0 -194 23.5t-197 23.5q-92 0 -279.5 -23.5t-281.5 -23.5q-43 0 -131 15.5t-131 15.5q-31 0 -98.5 -16.5t-102.5 -16.5q-59 0 -184 152v608q0 35 31.5 105.5t31.5 105.5v668q0 33 -31.5 93t-31.5 93q0 55 80 132t137 77 q70 0 215 -24.5t215 -24.5q47 0 144.5 16t144.5 16q49 0 148.5 -16t148.5 -16q59 0 179 16t179 16q102 0 201 -36q129 -47 129 -129v-1237zM1921 1407q0 152 -233 152q-61 0 -187.5 -16.5t-187.5 -16.5q-49 0 -144.5 16.5t-144.5 16.5t-147.5 -16.5t-149.5 -16.5 q-57 0 -171 16.5t-171 16.5q-209 0 -209 -107v-1237h119q29 0 113 48t112 48q29 0 136.5 -56t136.5 -56q59 0 215 82v202q-39 29 -105 33q43 -2 -112 -2q-35 0 -86 14l28 41h178q-55 78 -149 82t-123 49q61 16 96 15q-53 45 -65 102l12 2q35 0 86 -57q72 -80 76 -82l-2 80 q0 49 8 80q43 -31 49 -92q8 -102 10 -109q20 -63 97 -104v378q-41 57 -123 60q-70 2 -140 2q-33 4 -55 22q76 29 207 23q-86 68 -121 102q-68 61 -102 121l14 4q53 0 127 -96q0 16 -7 49t-7 49l24 54q37 -61 47 -129q12 -74 23 -97q27 -51 113 -110v282q-2 4 -60 62 q-35 37 -37 73q70 -25 92 -73q4 84 7 90q8 47 39 78q20 -117 12 -351q94 39 127 95q20 31 28 98q10 61 33 94q25 -51 4 -160q35 25 68 48q41 27 74 34q-47 -74 -150 -143q-117 -80 -147 -115q-68 -78 -68 -207q0 -72 19 -161q53 51 143 219q86 160 94 166l6 -64 q0 -63 -22 -129q49 43 100 84q80 63 105 64l-64 -95q39 -10 55 -18q27 -14 41 -39q-25 0 -73 9.5t-72 9.5q-27 0 -156 -115q-80 -72 -160 -146l-2 -69l2 -180q61 43 147.5 165.5t141.5 161.5q16 -72 0 -104q49 33 117 67q-20 -66 -96 -116q-106 -74 -121 -90q12 0 41 3t43 3 q61 0 76 -33q-51 -23 -134 -25t-118 -20q-57 -29 -101 -123h166q182 -131 217 -131q20 0 86 35q80 43 152 63q115 35 258 33v72q0 152 -32 433t-32 396q0 35 33 104.5t33 104.5zM1757 88q0 31 -49 76h-123q14 -29 49 -61.5t62 -32.5q20 0 38.5 9t22.5 9zM1374 -86v72l-51 51 h-74q18 -41 39 -80q27 -45 70 -45q8 0 16 2zM1182 180h-101q-25 0 -47 -31.5t-41 -58.5h121q68 61 68 90zM1120 -94l-106 20q-23 -27 -70 -76q6 0 33 -10t47 -10q57 0 96 76zM881 70q0 25 -13.5 38t-27.5 27q-72 -72 -72 -104q0 -23 17.5 -44.5t17.5 -27.5q27 14 52.5 49 t25.5 62zM543 164h-101q-14 0 -40.5 -31t-26.5 -45q0 -10 37 -10q100 0 131 86zM719 -168v74q-96 66 -125 65q6 -33 19.5 -64.5t29.5 -74.5h76zM461 -92q-4 0 -26.5 9t-43.5 9q-31 0 -60.5 -29.5t-41.5 -64.5h139q33 33 33 76z" />
<glyph unicode="S" horiz-adv-x="1916" d="M1855 639q-43 -96 -167 -236q-186 -209 -197 -221v101l-37 14q-39 -27 -49 -55q-14 -49 -21 -60q-12 45 -51 129q-47 -6 -47 -59q0 20 6 -68q-39 0 -57 47q-14 39 -29 80q-29 -20 -52.5 -57t-43.5 -72l-18 129q-55 -20 -82 -129q-2 0 -11 70q-6 41 -45 59 q-29 -29 -41 -65q-16 -47 -26 -64q-10 35 -22.5 68t-41.5 61q-41 -41 -98 -129v17q2 53 -18 112q-47 4 -58 -45q-14 -80 -18 -84q-10 45 -47 129q-35 -33 -60 -80q-80 104 -348 408l647 743q39 -27 72 -76t33 -92q0 -20 -48.5 -107t-48.5 -151q0 -16 13 -38q18 12 67 12 q-6 -10 -47 -51q-33 -31 -33 -56q0 -23 13.5 -64.5t13.5 -64.5q8 16 34 33.5t46 17.5t27 -20q23 47 55 80q0 -31 -6 -94.5t-6 -96.5q0 -127 49 -127q55 0 80 56q14 29 22 104q43 -29 88 -90l74 -102q18 45 57 45q18 0 68 -15q6 16 8 56.5t19 64.5q-74 61 -127 156 q51 12 116 -21q25 43 58 60q-20 43 -21 63q0 14 6 27q-147 29 -241 67q45 25 133 9q27 53 26 88q0 23 -22 47q-31 33 -35 41q-23 -16 -63 -29q-33 -8 -68 -18q-10 18 -12 45l24 43q-45 10 -47 43q-10 6 -29 6q-12 0 -37.5 -5t-37.5 -5q-76 0 -140 88q-59 80 -59 159 q0 25 57 95l78 90zM1405 117l-27 -107h-22l24 107h25zM1294 -102q-25 0 -55 -35v256zM1141 -279h-27v394h27v-394zM1030 -375h-29v490h29v-490zM901 -207h-27v322h27v-322zM774 -55h-29l-16 170h29zM768 686q-18 18 -53 31q-51 14 -60 18q20 20 21 62q0 25 -6 55 q-25 -2 -52 -4q-33 -6 -32.5 -26.5t-18.5 -47.5q-61 61 -84 62v-35q0 -66 -14 -107q-35 23 -82 45q-8 -35 -16 -106q27 -6 62.5 -53.5t33.5 -75.5q31 10 49 10q14 0 26.5 -13.5t32.5 -13.5q49 0 144 35q0 115 49 164z" />
<glyph unicode="T" d="M1968 924q-63 -29 -125 -58q-88 -39 -137 -39q-29 0 -47 13v-9q2 -57 -35 -57q-2 0 -31 6q-18 2 -30 -6q-117 109 -234 215q-115 90 -295 90l-28 -35q209 -6 374 -167q160 -156 189 -367l-27 -55q20 164 -134.5 346t-322.5 182q-23 0 -45 -14q236 -55 357 -252 q106 -174 106 -430q0 -41 -17.5 -140.5t-31.5 -140.5q23 90 23 199q0 231 -91 420q-104 219 -299 288q166 -188 230 -327q76 -162 76 -387q0 -78 -27 -209q-41 -201 -41 -209q113 63 186 215q66 135 76 280q10 -2 49 -8q29 -4 47 -4l29 6q-53 27 -125 27q0 -6 0 213 q0 127 -31 158v59q-8 -33 93 -137q115 -123 127 -146q-35 -16 -97 -22q129 -248 240 -389v-72q-115 -23 -350 4q45 -20 141 -41l-31 -61q0 -33 25 -88q37 -80 39 -86h-133q-74 61 -115 61t-47 -33l-66 66q-336 -160 -405 -160q-104 0 -279 58q-137 51 -272 102v-64l-80 48 v-64l-78 49l8 -41q0 -41 -20 -41q-8 0 -78 4q-47 4 -80 -2v1796h2q63 0 80 74q88 -18 174 -35q139 -27 135 -61q18 45 62 129q55 -41 158 -129q0 133 14 190q82 -23 133 -61l31 63q94 -47 178 -159q39 14 115 47q0 -74 28 -160q23 45 74 102.5t68 90.5q45 -35 100 -144 q20 31 61 31q31 0 91.5 -16.5t91.5 -18.5q-12 -82 -31 -131q20 -31 68 -57q39 -20 77 -43l-49 -29q96 -39 131 -90q39 -67 78 -137zM1350 1241v107h-29v-107h29zM1839 956q-66 18 -127 50q33 10 96 34q-23 0 -64.5 -5t-64.5 -5q-31 0 -73 23q-57 29 -70 32q68 18 76 21 q55 16 67 33q-29 0 -87 -14.5t-89 -14.5q-25 0 -65 29q-31 23 -62 43q90 70 183 114q-23 -4 -110 -38.5t-106 -34.5q-35 0 -84 46t-59 81q-10 -47 -55 -47q-41 0 -150.5 49t-122.5 47q-16 6 -22 6l-2 -2q0 -4 39 -29.5t41 -30.5l-133 -40q-16 27 -39 26q-16 0 -30.5 -13 t-14.5 -28q0 -10 14 -2q18 -68 115.5 -187.5t111.5 -187.5q0 68 -41 107q47 -41 103 -80q-12 55 -117 123q-96 61 -96 129q0 45 84 74q66 23 123 22q29 0 161 -45l-14 -49q14 0 34.5 15.5t35.5 15.5q74 0 176 -125q74 -92 147 -187q-35 51 -125 187q70 -2 158 -92 q113 -115 145 -132q-47 45 -129 144q15 -5 242 -62zM965 1401v106h-27v-106h27zM870 1440l-39 59l-20 -16l37 -56zM1106 1223l-76 37l-8 -23l74 -37zM1485 881q-53 123 -146 202q-106 90 -227 91q-49 0 -100 -23q-61 -29 -64 -72q90 47 123 47q96 0 225 -86 q103 -67 189 -159zM989 1198v29l-74 18v-26zM940 1174q-76 -39 -76 -58q18 -18 62 -18q6 25 14 76zM584 1305l-21 75h-26l18 -75h29zM854 950l-147 269h-25l149 -279zM918 922l-21 61l-23 -8l19 -53h25zM1792 43q-66 55 -188 170q45 -80 153 -221q-27 51 -26 65q0 8 6 13 q26 -27 55 -27zM672 1106q-55 49 -56 137v139q-10 -70 -34 -208q-37 25 -152 137q-102 100 -141 116q35 -35 69 -67q39 -41 60 -78q-106 -4 -146 -2q72 -20 146 -41q90 -29 127 -70q-119 -25 -242 -18q125 -8 369 -45zM690 1030l-10 23l-166 -84v-25zM1618 -88l-64 20v-24 l54 -19zM1583 -180q-72 72 -88 106q0 -16 7 -48t7 -48q4 6 15 6q10 0 29.5 -8t29.5 -8zM246 1128l-37 95l-23 -9l35 -86h25zM283 983q0 104 -37 143q0 -29 -8.5 -82t-8.5 -77q23 23 39 22q9 0 15 -6zM575 1042q-63 -66 -137 -184q-109 -174 -123 -194q12 29 37 84 q-57 41 -53 40q-6 -2 -2 -6v64q-2 -37 16 -55q25 12 113 139q75 110 149 112zM1360 182q0 223 -90 412q-106 215 -293 289q131 -96 201 -332q55 -188 55 -393q0 -53 -23 -88q-37 215 -73 430q-55 238 -219 370q-33 -88 -44 -274q-2 -141 -4 -283q-2 -72 -4 -96 q-6 -82 -20 -84l-15 584q0 20 9.5 63t9.5 64q0 23 -8 57q-233 -143 -234 -575q0 -147 51 -371q66 -285 156 -285h168q84 0 117 56l35 100q18 55 67 55q-33 -96 -82 -174q18 -4 35 -4q106 0 164 195q41 139 41 284zM279 897v82h-29v-82h29zM342 895l-23 8l-20 -41l23 -10z M760 913q-168 -14 -258 -221q-70 -160 -70 -358q0 -184 53 -342q68 -201 201 -273q-127 395 -127 615q0 376 201 579zM768 958q-31 25 -72 25q-152 0 -278 -221q-115 -199 -115 -363q0 -39 82 -159q-14 -2 -27 -2q-25 0 -53 22v-121q14 -18 60 -98q35 -61 67 -90l-63 -12 q37 -51 155 -170q-125 289 -125 538q0 266 60 414q86 219 309 237z" />
<glyph unicode="U" d="M1726 172q0 -53 -55 -101t-102 -48q-61 0 -96 34q-27 25 -56 93q-23 -129 2 -302h-217v332q70 -14 166 -14q125 0 358 94v-88zM1927 911v0v0v0zM1901 881h-107v26h107v-26zM2046 920q-45 8 -168 36q-104 27 -127 27q-119 0 -266 -70q-188 -86 -281 -235v463h201 q-4 -72 12 -94q100 113 160 112q57 0 98 -57q6 -10 45 -88q10 12 11 127h57q10 94 -2 223h211q4 -10 4 -29q0 -14 -3 -51t-3 -57q0 -86 51 -86v-221zM2005 702l-197 -313l-22 10l196 312zM2046 25h-184q-66 57 -70 143v156q150 92 201 227q2 -10 0 -162q0 -100 53 -147v-217 zM1729 864q-100 -33 -142 -90q-31 4 -51 -18q-27 -27 -31 -29q-43 4 -53 -39q-23 4 -43 -11t-20 -28q-20 2 -41 -16.5t-21 -36.5q-43 -45 -43 -51q0 -4 2 -10q-2 8 -10 8q-37 0 -72 -56q35 106 35 152q0 -41 29 -41q23 39 20 80q0 -8 10 -16q18 -10 23 -15q23 23 8 76 q25 0 53 -29q4 6 17 45q8 18 16 19q53 6 53 26q0 14 -8 37q8 -8 24.5 -15t24.5 -15q18 29 19 32q0 12 -6 29q29 0 57 -31q12 0 59 49q13 -6 91 -6zM1726 371q-80 -84 -239 -123q-117 -27 -240 -25l-47 -2q299 50 526 150zM1190 451l-70 -158l-22 10l67 148h25zM1184 743 q0 -115 -21.5 -148.5t-93.5 -39.5q-104 -8 -207 -18v-310q4 0 15.5 -6t33.5 -6q61 0 62 117q0 35 -5 78l-5 43l131 -9l10 -202q31 -31 63 -31q-72 -131 -145 -170q-35 -18 -111 -18q-276 0 -276 389q0 37 3 96t3 74q0 14 -2 64t-2 83q0 430 274 430q273 0 273 -416zM625 358 q0 -150 -84 -242.5t-230 -92.5q-104 0 -202 69q-109 76 -107 180v228h219q-2 23 -2 -111q0 -127 84 -127q66 0 80 45q2 6 2 60q0 129 -96 221q-88 78 -178 157q-94 113 -95 293q0 160 56 260q76 131 239 132q113 0 201 -74q96 -82 94 -203v-168h-219q2 68 2 57 q0 102 -78 164q-29 -14 -55 -43q-33 -33 -33 -61q0 -61 105 -178q150 -166 192 -234q105 -160 105 -332zM958 762v151q-33 35 -75 35l-17 -186h92z" />
<glyph unicode="V" d="M741 113l-22 -15l-37 58l23 14zM485 121h-26v76h26v-76zM2046 922h-59v-906q10 -12 59 -12v-317h-211q-61 0 -104 100q-35 76 -35 117v1018h-66q0 10 0 -273h-284q4 -29 4 131q0 119 -47 170q-35 -16 -69 -47t-36 -39v-633q-96 35 -158 35q61 92 146 121q-12 43 -74 43 q6 0 55 49q-16 49 -92 49q-20 0 -62 -5t-59 -5q-14 0 -24 4v121q68 23 190 88q-20 2 -60 15.5t-61 13.5q-37 0 -69 -33v182q0 131 131 230q113 84 211 84q119 0 207 -82q41 -37 127 -158q25 80 -4 221h90q18 135 -2 289h290q4 -20 5 -49q0 -20 -3.5 -66.5t-3.5 -66.5 q0 -94 68 -107v-282zM1630 -4q2 -102 -119.5 -205.5t-230.5 -103.5q-227 0 -317 237q16 -12 65 -37q61 -31 102 -57h56q0 90 -17 141q88 2 150 47q86 59 137 76q-39 14 -110 43v219h284v-360zM1079 139q-70 23 -200 47q49 -63 143 -194q-47 41 -96 119q-45 72 -80 100 q-61 47 -176 70q-16 -35 -2 -66q-139 152 -224 145q-16 -51 11 -131q2 63 -67 142.5t-136 85.5q-2 -8 -19 -172q-14 -119 -57 -174q8 -8 33 -2q33 8 45 8q16 -174 170 -367q102 94 123 158q6 0 67 -62q8 16 16.5 56.5t16.5 56.5q47 -72 121 -121q-72 -59 -141 -117 q-49 -35 -140 -34q-100 0 -235 92q-156 106 -156 237v621q0 18 -22 72q-29 63 -37 96q6 -8 24.5 -8t28.5 -23q8 8 8 35v127q-2 158 -2 311q76 201 153 272.5t222 71.5q139 0 266 -107.5t125 -219.5v-439q-63 6 -149 -22q-27 -8 -150 -60q0 164 -2 529h-117q-23 -25 -49 -88 v-506q-8 16 -35 65q-18 -35 -38 -106q-23 -82 -37 -117q4 0 -95 33q14 -20 79 -67.5t83 -47.5q61 0 137 160l-6 -47q-2 -29 6 -49q51 18 168 84q-80 -45 -241 -156q94 -70 145 -87t166 -17q121 0 137 6q-33 -8 -96 -15.5t-96 -15.5q135 -56 407 -162zM199 578l-23 -15 l-70 88l23 15zM129 567v0v0v0zM104 750v0v0v0z" />
<glyph unicode="W" d="M766 592h-107v29h107v-29zM229 410h-26v106h26v-106zM862 922h-219v442h219v-442zM1473 502q0 -23 2 -87.5t2 -105.5q0 -416 -293 -415q-90 0 -180.5 74.5t-90.5 160.5v307q66 -20 78 -6q-49 33 -209 76q10 -20 80 -55v-555h-266q-84 332 -84 421q0 16 66.5 123t66.5 207 q0 18 -2 37q14 -10 29 -20q25 -16 49 -17q49 0 169 57.5t138 88.5q-51 -76 -213 -170q14 -6 44 -4t44 -7q27 -76 113 -190q88 125 88 160q0 68 -34 171t-62 126q8 8 32.5 16t30.5 16q-6 6 -39 7q-20 0 -94 -25q-80 -29 -90 -47l10 -103q-4 4 -115 80q-35 -16 -98 -80 q4 70 -16 113h-45q-33 -27 -33 -59q0 -16 17.5 -73.5t21.5 -107.5q-23 20 -39 21q-8 0 -12 -4t-9 -4q-4 0 -22.5 9t-36.5 9q-23 0 -35 -7t-18 -7q0 10 11 38.5t11 47.5q0 12 -4 24q-8 0 -14 21q-10 31 -14 43q-12 -10 -13 -80q-53 31 -92 31q-55 0 -55 -19q0 -8 24 -18 q-8 -14 -8 -29q0 -63 109 -123q82 -45 194 -75q-10 0 -77.5 5t-116.5 5q-72 -113 -94 -225q4 53 -46 127q-4 -8 -4 -21q0 -16 13.5 -53t13.5 -58q14 -14 141 2v-378h-235l31 1126q-63 55 -175 123v74q41 -23 129 -64q25 98 -2 207h285q4 -33 49 -211q37 -139 31 -223 q92 -43 178 -43q160 0 230 61q45 57 90 117q55 61 176 61q297 0 297 -430q0 -49 -4 -115.5t-4 -78.5zM281 1071v0v0v0zM2046 860v215h-219q6 -61 6 -131q0 -129 -25 -317q-20 -152 -41 -301l-57 749h-235l143 -1179h299q18 182 78 587q53 363 51 377zM1036 963v26l-73 -18 v-27zM1247 510q0 346 -71 408q-12 -8 -25.5 -20.5t-13.5 -37.5v-704q35 -35 75 -35q35 104 35 389zM434 983l-90 53l-10 -22l90 -53zM420 866l-55 56l-17 -17l55 -55zM293 963l-41 38l-16 -16l38 -39zM520 719v0v0v0zM469 745v74h-27v-74h27zM299 547q-6 14 -33 37 q-18 14 -39 30v-94z" />
<glyph unicode="X" d="M934 985h-25l-98 197l23 10zM1968 -76h-16q-61 -2 -191 88q-96 66 -170 140q-346 -131 -788 -543q121 164 336 315q143 100 397 236q-68 66 -201 198q-68 -35 -67 -96q0 -31 18 -80l-31 33q-20 -33 -67 -94q53 106 78 227q-102 43 -297 43q-121 0 -201 -39l63 43 q-133 35 -184 35l41 16l-78 86q131 -123 303 -122q-23 41 -73 79q-45 33 -90 64q41 -31 124 -84q104 -63 127 -63l295 12q-66 90 -188 145q-111 49 -219 99l8 -39q-80 4 -260 41q-166 33 -256 30q-41 -133 -45 -141q-31 -55 -127 -92q70 -45 194 -170q109 -104 199 -148 q135 -66 350 -73q86 94 123 145q-72 -104 -237 -487q63 164 106 299q-168 61 -526 127q2 133 -101 208q-59 45 -221 101q70 2 162 41q111 45 111 102q0 20 -95 164q322 -80 480 -78q-119 172 -336 527q43 -10 91 -24.5t77 -37.5h57q14 39 14 76q0 66 -24 176 q-35 143 -39 178l12 2q41 0 160 -147q76 -94 152 -189q25 63 65 306q66 -96 162 -263q119 -203 158 -266q39 94 77 279q31 23 98.5 41t92.5 34q45 31 53 95l-2 -105q-2 -68 25 -92q4 -14 4 -35q0 -23 -10.5 -71t-10.5 -70q0 -74 86 -74q23 0 66 5t57 5q-102 -289 -321 -698 q90 207 260 625l-45 -8q-84 0 -115 167q-14 121 -31 240q-109 -37 -160 -108q-41 -55 -57 -154.5t-31 -194.5q-84 55 -180 242q-121 231 -158 277q-37 -94 -63 -271q-78 68 -158 180q-20 29 -133 203q-6 -2 -6 -39q0 -74 125 -452q-35 -2 -111 24q-57 18 -112 39 q156 -260 202 -319q147 -182 308 -183q31 0 84 15q-27 49 -76 112q-43 53 -84 107q14 41 49 121q18 -150 127 -297q35 -49 213 -248q20 47 31 119q10 61 20 121l15 -64q37 39 118 109q-61 -49 -106 -142q-8 -14 -68 -166q227 -207 283 -254q164 -139 309 -221zM621 432 l-123 17v28l123 -18v-27z" />
<glyph unicode="Y" d="M2025 -104h-182q-18 53 -84 151q33 33 113 143q-63 94 -113 144q41 55 129 162q-47 59 -176 157q43 53 94 133q66 104 66 140q0 23 -40 67.5t-40 69.5q0 18 45 84.5t51 95.5q-74 45 -143 115q162 170 280 215v-1677zM1808 1604q-145 -158 -184 -158q-23 0 -57 27 q-49 35 -54 38q-45 -49 -92 -96q-53 -47 -123 -47q-31 94 -137 174q-68 -63 -94 -143q-74 49 -225 143q-41 -47 -82 -47q-23 0 -99.5 63.5t-101.5 63.5q-20 0 -119 -55q-113 -66 -131 -72q-37 47 -116 141h626q61 0 180 -16t179 -16h630zM1679 768q-66 -31 -131 -59 q-59 -37 -59 -127q0 -104 160 -183q-223 -164 -443 -200q-98 -16 -479 -17q-45 0 -221 -176q-29 12 -70 43q-57 41 -67 47q80 2 163 35q94 35 140 90q-33 33 -35 103q2 -57 2 110q0 53 -55.5 151.5t-55.5 125.5q0 74 76 247q57 125 115 248q47 -80 53 -92q33 -53 68 -84 q35 20 149 66q96 35 141 78q0 -16 -6 -52.5t-6 -56.5q0 -82 66 -82q45 0 211 107q150 96 202 147q-37 -66 -71 -129q-37 -80 -37 -141q0 -78 56 -137.5t134 -61.5zM319 719q-127 -170 -126 -201q0 -27 39.5 -100.5t39.5 -100.5q0 -113 -79.5 -308t-157.5 -273v1540 q0 37 16.5 108.5t16.5 108.5q205 -152 204 -190q0 -23 -26 -62q-18 -29 -37 -57l94 -97q-96 -129 -160 -192zM1919 -356l-1774 -33q127 129 295 268q119 -80 160 -80q27 0 99.5 40t101.5 40q25 0 134 -48t136 -48q18 0 46 40t50 40q25 0 100.5 -56.5t100.5 -56.5q23 0 71 32 t72 32q25 0 58 -32t55 -32q25 0 59 19l54 28q71 -69 182 -153zM1536 399q-127 59 -127 160q0 100 127 209q-61 12 -96 76q-31 53 -31 121q0 66 29 96q-39 -39 -115 -94q-90 -63 -123 -64q-47 0 -90 51q-29 45 -59 93q-195 -49 -232 -50q-66 0 -90 82q-104 -252 -104 -368 q0 -51 50 -196.5t46 -231.5q139 -51 231 -52q273 0 584 168zM1278 739q-55 -86 -127 -133q33 -18 96 -14q-6 -2 -57 -37q-35 -25 -66 -29q-55 -8 -143 -61q-98 -59 -145 -74q0 18 86 121q-16 43 -17 102q0 55 15 113q16 -51 32 -100q20 -59 76 -62q33 37 66 146 q8 -23 34 -64q37 25 74 51q53 37 76 41z" />
<glyph unicode="Z" horiz-adv-x="1705" d="M1440 1059q-55 -37 -105 -37q27 0 35 37h70zM1657 754q-25 -4 -58 -39q0 -12 33 -45q-20 -12 -45.5 -44t-25.5 -53q0 6 -12.5 16.5t-12.5 33.5l20 29q19 30 31 102h70zM1534 729q2 -39 -21 -82q-16 18 -49 39q8 0 24.5 2t24.5 2q-18 29 -57 39q-31 10 -31 23q0 12 15 43 q-37 10 -45 10h-2q2 -2 8 -6q86 -37 119 -33l-64 -31q12 -6 27 -6q27 0 51 10v-10zM1647 778q-51 27 -254 66q31 25 71.5 90t71.5 90q-6 8 -16 8q-18 0 -52 -16l84 55q-12 6 -73 23q-43 12 -64 49q-20 -23 -63 -43q-57 -29 -68 -37v10q0 14 -43 101q-4 -12 -4 -134 q0 -63 -37 -67q16 -4 45 -4q66 0 137 24q-74 -35 -245 -69q217 -219 424 -502q16 20 16 121v-39q0 -96 -14 -146q-41 31 -105 62q-74 35 -115 35q-29 0 -57 -33q-10 31 -45 82q-43 59 -51 80q-33 -10 -92 -80q-63 -76 -101 -96l-32 122q-27 78 -84 74q53 45 80 127 q-49 10 -146 35q49 16 98.5 67.5t49.5 98.5q25 2 50 6t36 33q-66 0 -197 -18.5t-197 -18.5q-82 0 -166 35q-104 41 -104 110q115 98 176 158l-2 12q-2 59 72 107q66 43 129 43q76 0 292 -112.5t255 -176.5q41 25 127 64q45 -23 92 -46q37 -23 73 -73q-8 -14 -55 -51 q-39 -29 -39 -56q0 -18 15 -41q-47 -10 -80 -43q74 -18 207 -86zM662 401h-27l-17 179h27zM897 168l-8 -23l-53 19v24zM989 313q-8 23 -36.5 58t-32.5 49q-39 18 -76 37q-51 25 -49 53v8q-41 -31 -99 -96q-33 63 -32 168q0 -193 -5 -217q-4 0 -18 9t-33 9q-25 0 -38 -20.5 t-25 -38.5q29 0 71 43q20 -4 56 -23q-82 -41 -113 -41q-14 0 -46 5.5t-48 5.5q70 -70 67 -91q68 94 132 95q41 0 98 -150q53 -139 49 -190v-9q-51 12 -109.5 83t-76.5 77q39 -18 108 -96q78 -90 111 -113q-90 270 -125 416q76 -12 104 -10h25q-49 0 -113 33q20 8 58 88 q2 -2 16 -31q8 -18 31 -18q18 0 24 8t25 8q23 0 20 -12q-2 -20 2 -27q-33 -16 -80 -16q16 0 48 4t49 4q27 0 26 -4q-2 -12 7 -21q-43 -45 -130 -112q92 -45 125 -86q-27 53 -75 102q55 59 104 59h4zM934 115l-53 -111l-23 10l51 101h25zM678 299l-103 -152l-20 15l100 151z M592 96h-10q-4 0 -84 -39q20 33 20 68q0 47 -37 86q14 -6 25 -45q8 -31 30.5 -31t37 -19.5t18.5 -19.5zM1210 1174q-18 -37 -28 -56q-23 -33 -43 -43v-123q51 23 63 78q6 25 6 105q0 27 2 39zM1077 1016l-131 215l-24 -8l133 -217zM1184 1200q-156 119 -232 119 q-18 0 -24 -8t-25 -8q-23 0 -76 39.5t-75 39.5q-66 0 -115 -48t-41 -113q-57 23 -68 22q-8 0 -12 -8q-39 -63 -51 -78q-27 -37 -66 -70q16 -37 105 -71q80 -33 129 -33q25 0 75 23.5t76 23.5q33 0 102.5 -6t104.5 -6q-94 127 -94 188q0 35 68 66q18 -49 63 -115 q59 -92 70 -110q8 33 43 80.5t43 72.5zM1104 915h-109q0 -51 -34 -90h73q23 31 70 90zM1534 418q-106 145 -393 467q4 -27 4 -56q0 -113 -80 -278q0 66 18 160q16 80 33 157q-106 -78 -205 -102q63 4 80 -16q-16 -51 -24 -70q-16 -37 -39 -59q74 -16 67 -150q18 10 31 29 q16 29 23 35q10 -23 34 -48l58 72q37 47 65 55q25 -47 78 -143q12 2 37 9t39 7q25 0 86 -28q45 -21 88 -41zM788 479l-22 8l-59 -104l22 -10z" />
<glyph unicode="a" d="M1933 -152h-1835v1579h1835v-1579zM1845 94q-37 33 -37 43q0 4 7.5 11.5t7.5 13.5h-94q33 -33 32 -49q-10 -8 -32.5 -18.5t-32.5 -18.5q35 0 35 -51h90q8 16 16 49q8 24 8 20zM1886 201v379q-80 0 -110 28q6 35 28 103l82 -15v684h-1739v-301l50 31q33 2 63 33 q43 -86 43 -105q0 -70 -80 -69q-33 0 -78 12v-315q70 -14 95 -43l-39 -17l55 -16l-27 -55q-35 14 -82 14v-574q39 63 83 127t112 64q39 0 90 -19q-59 37 -133 103q-61 57 -123 115q33 16 76 12q2 33 14 78q6 -16 45 -17q57 0 58 80q0 39 -80 119q33 16 78 10v121 q0 27 -39 80l-58 74q51 -12 103 -25q45 -10 98 -10q25 0 57.5 -32t55.5 -32q41 0 80 31q6 -20 16 -41.5t33 -21.5q39 0 53 18v104q0 23 -25.5 41.5t-25.5 38.5q0 27 30 86q33 -33 84 -45l-2 49q-2 47 15 93q14 -33 55 -33q43 0 84 86q53 111 63 123q8 -72 56.5 -134.5 t116.5 -87.5q-4 -10 -5 -28q0 -39 9 -86l96 94l10 -102q-23 -43 -47 -86q-33 -59 -33 -93q0 -39 23 -55q20 2 74.5 17.5t103.5 15.5q29 0 106.5 31.5t131.5 31.5l75 -10q-35 -43 -67 -88q-45 -63 -45 -94q0 -39 47 -72q-37 -35 -74 -67q-53 -51 -53 -76q0 -53 41 -53 q12 0 39.5 6t38.5 6q20 0 84 -43q78 -55 83 -60q-63 -16 -178 -69q-141 -66 -141 -100q0 -39 47 -72q-39 -39 -127 -39q-53 0 -135 80l-64 -64q-6 6 -38 109q-23 68 -82 67q-55 0 -84 -44t-29 -101q0 -39 18 -92q35 -10 134 -60q80 -41 137 -40q63 0 195 39.5t196 39.5 q59 0 178 -45v103q-2 -39 -18 -72q-27 39 -92 45q-8 0 -109 -2q6 18 6 33q0 12 -18.5 27.5t-20.5 27.5l80 33l-47 63q166 1 223 15zM1696 354q-18 12 -65.5 15.5t-63.5 13.5q-31 18 -31 72q0 45 31 84q12 18 65 65q-18 39 -18 92q0 51 16 109q-86 -25 -170 -49 q-109 -29 -172 -29q-31 0 -59.5 36t-28.5 66q0 53 64 150q-82 4 -119 123q-86 70 -113 121q-45 -53 -121 -127q-121 -115 -127 -121q33 -43 33 -113q0 -119 -96 -119q-25 0 -350 93q51 -129 51 -252q0 -188 -150 -232q12 -16 111 -108q74 -68 84 -125h72q27 0 65 80 q20 0 57 -14.5t56 -16.5q4 27 61.5 69t85.5 42q29 0 73 -32t62 -32q27 0 73 32t73 32q31 0 71.5 -46.5t51.5 -80.5q20 14 59 14q80 -76 193 -76q-31 37 -31 70q0 49 100.5 103t106.5 91zM1790 -111v27h-156v-27h156zM1534 -113v29h-76v-29h76zM256 1042q0 8 -2 25.5t-2 26.5 q-55 -25 -107 -74h11q6 -2 10 -2q23 0 35 12l39 -31q16 10 16 43zM958 -8v203q-68 37 -94 36q-45 0 -88 -55q-33 -45 -63 -90q-29 20 -82 64q-18 -27 -66 -56q-53 -35 -69 -51q37 0 105.5 13.5t103.5 13.5q52 0 253 -78zM1151 -100q-59 59 -86 59q-12 0 -28.5 -8t-28.5 -8 q-29 0 -163 50t-149 46q-117 -33 -235 -66q-168 -47 -225 -47q-39 0 -93 -26h1008zM449 53q-25 20 -50 41q-31 25 -55 25q-39 0 -78 -53q-33 -45 -41 -91h74q21 15 150 78zM1747 1124q-6 6 -16 6q-66 0 -66 -55q0 -27 14 -41q-2 0 -94 39q-55 25 -96 25q2 2 2 8q0 55 -51 92 q27 27 45 64.5t31 54.5q-2 -8 -3 -17q0 -49 41 -67q23 -10 80 -16q45 -4 49 -17q17 -45 64 -76zM688 1020q-20 0 -59 13.5t-62 13.5q-31 0 -63 -33q-61 43 -150 133v123q57 -23 164 -80q18 37 66 37q10 0 20 -4q-51 -20 -63 -80q-14 4 -64 33q-37 23 -65 20h-13 q29 -20 80 -66l-20 3q-33 0 -60 -15q84 -55 121 -55q16 0 105 43q0 10 -18.5 24.5t-22.5 20.5q4 6 26 6q8 0 27.5 -1t32.5 1v-92h-27q-23 2 -35 -10q31 -12 80 -35zM1030 281h-29v475h29v-475zM1589 1120l-53 74l-23 -14l54 -74z" />
<glyph unicode="b" d="M2032 559q-68 -35 -68 -76q0 -4 16.5 -45t16.5 -63v-6q-45 12 -90 12l-39 -6q2 -43 18 -76l-61 -31q10 -20 43 -43q43 -27 51 -37q-49 -2 -33 -67q-47 0 -78 -41q41 -33 127 -96q-43 -45 -43 -97q0 -20 9 -77q-61 37 -101 36q-41 0 -45 -47q-27 53 -84 160l-49 -80 l-16 64l-66 -47l2 32q4 31 -13.5 54.5t-47.5 23.5l-74 -10q49 -47 63 -82l-63 -12q23 -33 63 -101q-25 14 -51 29.5t-51 15.5q-41 0 -12 -47l-64 49q-20 -59 -14 -143q-23 12 -61 12q-25 0 -93 -61v25q4 109 -61 108q-10 0 -23 -2q47 47 64 80q-33 16 -96 16q33 23 82 78 l-226 -12l97 -47q-72 -2 -146 -49q33 -49 47 -82q-82 -33 -84 -84l-86 41q2 70 -14 118q-6 -33 -45 -32q-41 0 -88 34v74l63 45q-63 2 -119 25l-14 -113q-18 25 -67 58q-43 27 -64 69l-61 -110q-53 31 -84 30q-25 0 -68 -14q18 29 19 68q0 49 -37 83q43 18 127 64l-56 47 l39 19q-14 35 -63 79l86 -10v80q51 -49 100 -49q-47 76 -84 145q-39 -31 -112 -96q0 39 -36 62.5t-77 23.5q-14 0 -27 -2q4 8 41 51q29 31 29 58l-31 40q41 0 144 35v92q0 37 -50.5 68t-85.5 21q6 41 39 71l-47 51q63 8 109 50q0 39 -13 88l56 -21l12 64q31 -20 61 -21l17 4 l-35 41q47 16 80 49l-47 13q47 35 80 51q-41 41 -129 115l65 32q-16 80 -31 129q109 -29 111 -28q39 0 57 30q23 -51 64 -159l43 80l35 -48l69 45v-110l68 12l-33 29q33 2 64 18q-20 33 -62 101q25 -14 51.5 -30.5t51.5 -16.5q39 0 12 49l63 -49q23 66 17 143l53 -31 q29 14 96 80q0 -135 66 -135q8 0 18 4q-45 -49 -63 -82q35 -16 112 -16q-37 -25 -110 -68q18 -23 78 -27q-27 2 84 2q-35 43 -66 60q29 0 74 22q53 25 71 29q-23 29 -22 51q0 23 24 31q18 63 35 98l103 -67l18 -94q41 0 111 -21l-47 -51l45 -10l-45 -56q14 -25 86 -53 q23 53 65 176q31 -63 74 -82q20 -31 53 -63q4 6 84 129l53 -49q41 0 78 14v-154q-43 -16 -125 -61l47 -47q14 -68 31 -101l-68 15l-8 -51l-73 34q-29 -14 -58 -102q49 -8 142 4l-15 -67q43 -10 146 0q-33 -16 -113 -99l49 -14q-37 -25 -113 -68q46 -28 177 -94zM1712 1069 q-14 39 -43 82q-8 -2 -14 -2q-23 0 -47 25q-14 -29 -47 -80q-8 20 -41 48.5t-41 47.5v-8q2 -100 -103 -109q55 -55 64 -115q2 -8 8 -8q14 0 33 17q43 -45 65 -97q0 33 31 64q16 -8 49 -31q2 12 13.5 29.5t21.5 11.5l-29 49q0 35 80 76zM1376 860q-41 18 -112 66q16 12 47 37 l-23 -2q-43 -2 -71 16q37 59 110 129h-10q-57 -2 -70 47q-2 10 -4 94v6q-35 -25 -98 -79l-51 49q0 -82 -33 -176l-76 47q-18 -8 -35 -9q-20 0 -41.5 13.5t-42.5 27.5v-155q14 -20 45 -60q-10 -8 -127 -65q90 -23 209 -82q-23 -37 -55 -115q27 10 53 41q37 47 43 53 q45 -10 195 -94q-23 70 -23 96q0 18 6 33h99q-23 23 -47 64q36 18 112 18zM1776 381q-31 25 -97 68l80 81l-16 -2q-33 0 -47 15l47 51q-10 0 -30.5 -6t-33.5 -6q-18 0 -20 16t-19 16q-8 0 -13 -11t-23 -11q-14 0 -37 4l-17 88q-43 18 -104 57q0 -61 -19 -98h-67 q33 -29 80 -98q-37 -18 -78 -13q4 -14 4 -24q0 -49 -70 -43q27 -25 80 -70q0 -8 80 -47q-12 -31 -47 -82q49 23 147 62q18 -33 52 -97q8 16 8 39q0 33 -17 62q33 16 89 28q70 15 88 21zM743 1102q-39 0 -55 18q6 10 6 23q0 10 -7 28.5t-7 26.5q2 -10 -8 -10 q-53 0 -66.5 17.5t-30.5 17.5q-10 0 -30 -2h-29q-20 -23 -20 -62q0 -10 44 -84t40 -106l92 49q0 25 24 54.5t47 29.5zM1272 317q-53 0 -88 27q8 10 8 18q0 25 -57 25q0 14 7 42t7 40q-20 -10 -57 -39t-58 -41q-29 57 -71 80q25 -72 24 -98q0 -16 -6 -29h-10q-27 0 -107 -39 q23 -8 45 -16q31 -12 35 -31l-47 -51q29 -16 35 -22.5t4 -32.5q0 12 25 12q23 0 28 -10l55 30q14 -39 23 -57q16 -41 33 -47l10 2q14 0 39 -11.5t33 -11.5v13q-2 35 35 88q-25 25 -66 80q14 12 55 10q2 27 21.5 48t44.5 21zM735 618q-16 23 -80 54l64 67q-8 -4 -14 -4 q-25 0 -35 53q-10 0 -27.5 -5t-28.5 -5q-57 0 -74.5 34t-33.5 67l-10 -2q-33 0 -74 41q-2 -16 -19.5 -57.5t-17.5 -61.5q0 -25 21.5 -43.5t42.5 -36.5q-45 -23 -66 -17q18 0 18 -4q0 -6 -65 -43q20 -12 65 -53q6 -8 31 -14t33 -15q-14 -27 -12 -61v-25q66 66 106 64h4 q31 -61 76 -62q-12 33 -47 84q71 49 143 45zM735 303q-4 4 -12 4q-10 0 -33.5 -7t-38.5 -7q-18 33 -53 98q0 -66 -51 -65q-49 0 -80 16v-74q25 -29 25 -28q0 -4 -7 -11q-23 -8 -67 -16v-76q18 0 43.5 -16.5t21.5 -32.5l68 62q27 -29 67 -95v8q-2 35 28 73t65 38q12 0 24 -4 q-20 31 -63 84q22 14 63 49z" />
<glyph unicode="c" horiz-adv-x="2203" d="M2116 829q0 -84 -41 -248.5t-41 -248.5q0 -43 8 -72q14 20 49 53q-8 -6 -28.5 -41.5t-80.5 -50.5q8 197 43 402q2 14 21 84q14 55 14 81l-10 62q-14 0 -37 -27q-14 -20 -31 -41q18 33 39 68t47 51q48 -49 48 -72zM1901 829q0 -84 -41 -248.5t-41 -248.5q0 -43 10 -72 q39 33 53 66q-8 -29 -40 -64t-60 -41v41q-2 125 39 375q27 152 26 151l-10 74q-23 -8 -47 -67q16 39 63 106q48 -49 48 -72zM1710 311q-29 -43 -43 -59q-29 -35 -57 -45q-12 47 -13 174q-41 -86 -129 -174h-61q-2 12 -25 59q-16 37 -16 60q0 90 55 174q61 94 146 94 q47 0 67 -12l49 10q-4 -31 -28 -152q-23 -96 -23 -147q0 -31 19 -47q8 14 59 65zM2142 -150q-43 -2 -109.5 -36.5t-109.5 -34.5q-61 0 -104 -10q20 -37 53 -111q-147 106 -236 127q-14 4 -243 27q66 10 194 43q-39 92 -74 215q45 -45 82 -54v80q29 -25 56 -37q6 10 6 50 l4 20q12 14 23.5 46t23.5 44q6 -27 33.5 -74t34.5 -73q51 25 79 80q0 -27 13 -39q57 27 82 53v-6q0 -23 12 -35q18 10 61 53q-27 -27 -28 -96q18 -18 47 -2l-47 -55q25 -25 53 -25q-80 -27 -121 -53q70 -38 215 -97zM1458 842q0 -33 -33.5 -80t-66.5 -47t-47 18 q27 6 60.5 42t33.5 61q0 41 -28.5 67.5t-71.5 26.5q-76 0 -111 -76q-23 -51 -35 -163.5t-22 -141.5q121 -12 153 -12q20 0 41 34q16 27 23 50q-2 -68 -21 -201l-8 84l-94 10q-78 0 -105 -37q-18 -25 -22 -94q-6 -86 -21 -127q92 -31 136 -29l-256 -18q0 -25 57 -43 q39 -10 78 -21q-37 0 -107.5 10.5t-107.5 10.5q-8 0 -168 -39l-27 66l-86 -87q37 -37 121 -61l135 68l66 -19q-43 -14 -84 -27.5t-76 -54.5q88 -121 131 -198q-66 35 -119 34q10 -39 10 -65q0 -23 -4 -31l-24 39q-2 -14 -9.5 -48t-7.5 -52t7 -39q-39 20 -103 61l-22 51 q-23 -41 -70 -120v10q0 33 -12 57l-35 -65l-45 39l-39 -68q-4 29 -7 59.5t-26 44.5l-14 80q31 14 67 47q-39 8 -96 31q-78 31 -92 37l18 -6q43 0 84 39t47 82l41 -2q35 0 78 12l-76 45l9 59l-70 9l-4 26q0 20 45 53q53 39 63 56q-27 0 -75 -17q-61 -20 -78 -24q37 57 65 71 q-45 4 -133 23v10q0 29 39 51q51 31 60 43q16 -8 59 -49q37 -37 53 -37q12 0 29 13q-70 51 -115 141q-18 -20 -110 -78q27 51 26 119l-33 -25h-61l39 43q-29 14 -80 21l-80 -37q45 74 45 88q0 12 -4 27q63 6 92 22q-49 14 -147 47l53 21l-74 39l47 28q-14 27 -79 37 q63 63 100 64q12 0 23.5 -14.5t23.5 -14.5q35 0 35 41q14 -29 61 -68q0 72 25 193q-66 59 -133 78q4 47 82 109.5t125 62.5q61 0 65 -41q4 -49 33 -62l-41 -151q-33 -10 -107 -10q12 -25 68 -74q47 -43 78 -145q37 20 115 53q-25 -66 -66 -201q66 25 135 229q35 0 39 -26 q4 14 4 33q0 23 -10 68.5t-8 68.5q18 16 65 96q43 -12 58 -39q6 33 32 60l-61 61q-63 -66 -61 -119l-43 25q-68 -39 -109 -53q-27 16 -51 96q-23 70 -23 110q0 37 19 74q57 -16 114 -33q74 -23 115 -22q41 0 62 10l-39 64q33 -14 57 -15l20 4l-38 66q16 16 16 100 q16 -25 62 -60.5t63 -60.5q16 14 22 52q6 27 13 55l30 -39q39 35 68 94l12 -41l56 80q-8 -31 -9 -96l47 10l-20 -41q18 -27 53 -37l-80 -82q57 -18 101 -18q14 0 53 3t74 3q-25 -37 -80 -70q-47 -27 -94 -53l67 -12q-76 -18 -174 -68q39 -25 105 -84q-53 10 -82 25 q-8 -51 4 -76q-49 -23 -148 -65l88 20l78 -10l8 -55q-94 -59 -100 -60q-53 -2 -106 -2l-76 -6q2 -18 18.5 -23.5t40.5 -3.5q33 4 35 4q74 0 106 -69q-74 0 -145 -43q-63 43 -131 43q-10 0 -21 -2l-2 -11q0 -23 33 -34q-10 -49 -47 -49q-18 0 -56 13t-57 13 q-23 0 -63.5 -21.5t-56.5 -39.5l39 -58q27 -43 47 -43q35 0 45 27q29 -88 88 -86q20 -16 30.5 -74.5t49.5 -79.5l43 66q33 -59 104 -172l86 37q18 82 43 260q-33 8 -94 31q80 2 108 110q27 100 54 203q47 109 172 108q57 0 102 -30.5t45 -83.5zM1499 -72q-41 -14 -110 -69 q-51 -41 -123 -41q-47 0 -56 59q-12 68 -45 80q25 43 49.5 86t63.5 43q18 0 116.5 -70t104.5 -88zM1163 -168h-84q-20 0 -88 25q-80 27 -94 30v82q0 2 14.5 19.5t14.5 68.5q27 0 59.5 20.5t50.5 20.5t72.5 -71.5t54.5 -94.5v-100zM981 1065v49h-23v-49h23zM915 1114h-24 l-12 -117h22zM1632 551q-8 2 -27.5 16.5t-37.5 14.5q-43 0 -92 -109q-43 -94 -43 -147q0 -51 49 -80q63 63 151 305zM795 1061h-23l-14 -164h22zM520 512q0 51 -59 82q-8 -8 -22.5 -30.5t-22.5 -33.5q23 0 59.5 -14t44.5 -14v10zM662 334l-72 137h-19l70 -145zM657 246 l-8 18l-125 -55v-21z" />
<glyph unicode="d" horiz-adv-x="1613" d="M1554 420q0 -330 -102 -537q-135 -274 -428 -274q-207 0 -459 207q-231 190 -398 467.5t-167 480.5q0 106 154 242q117 100 235 200q-4 12 -43 121q-29 84 -29 117q0 61 75 137t138 76q61 0 109 -156q57 -186 80 -213q188 -35 379 -69q291 -59 325 -115q37 -63 86 -334 q45 -252 45 -350zM1483 446q0 260 -80 398q-115 -190 -451 -299q-279 -90 -555 -90q-18 0 -235 32q115 -326 332 -546q258 -262 565 -263q424 0 424 768z" />
<glyph unicode="e" horiz-adv-x="4093" d="M3998 1444q-94 -254 -252 -410q-102 -102 -293 -205q-203 -109 -272 -170q-47 -43 -82 -139q-59 -152 -60 -151q41 -37 80 -72q49 -47 49 -90q0 -221 -90 -332q-74 -92 -244 -139q-176 -39 -352 -80q14 352 84 500q106 219 393 219q47 0 95 125q59 156 67 168 q-295 -33 -450 -66q-229 -49 -433 -145l-14 -27q96 -113 96 -192q0 -221 -239 -320q-170 -70 -430 -70q-6 41 -39 185q-29 119 -29 182q0 127 104.5 231.5t233.5 104.5q37 0 115 -25.5t116 -25.5q74 0 136 41q-285 123 -377 123q-233 0 -348 -39q-66 -20 -144 -164 q-72 -135 -114 -135l-74 22q16 -8 33 -8q57 0 125 125q88 162 100 172q-51 31 -279 129q-240 104 -266 104q-37 0 -113.5 -71.5t-134.5 -71.5q-178 0 -381 184q-150 158 -299 314l19 108l94 -14q125 111 270 111q518 0 519 -326q0 -233 208 -234l60 13q-57 115 -109 340 q137 -545 551 -545l37 6q-272 92 -272 354q0 49 63 213q76 186 86 228q80 -90 256 -236q133 -109 178 -192q66 -121 60 -328q119 -70 151 -84q88 -41 164 -41q23 0 291 76q-14 68 -103.5 130t-171.5 62q-33 0 -57 -12l-39 41q33 43 33 76q0 12 -63 166q25 18 223 239 q152 166 231 166l51 -33q57 25 88 127l107 -22q63 -115 125 -230q70 -131 69 -241q0 -43 -15 -126t-17 -126l-86 -37l-160 33q-2 -4 -55 -70q-23 -29 -47 -29q-31 0 -103 35l-12 -71l121 -74q575 0 919 455l-137 -7q-37 -2 -61.5 35t-24.5 78l18 94l76 15q-47 -100 -47 -101 q0 -29 18.5 -51t45.5 -22q121 0 184 40q35 20 102.5 100.5t143.5 129.5zM3088 1151q0 55 -24 117q-27 72 -68 90q2 18 2 -127q0 -78 -43 -105q0 86 -26 224q-33 176 -37 223q-70 -59 -137 -121q-96 -82 -142 -104q20 63 90 127q-102 -23 -154 -104t-100 -161l31 2 q113 6 326 -88t211 -94q71 0 71 121zM3023 922q-45 68 -249 152.5t-294 84.5q-51 0 -160 -37q4 -14 29 -75q20 -47 21 -78q0 -27 -17 -45q49 0 110.5 -35t71.5 -35q33 0 121 12q76 10 125 6q14 78 68 78q47 1 174 -28zM3105 207q0 51 -76 88q-74 -135 -147 -270 q-102 -174 -179 -240h103q156 0 235 139q64 113 64 283zM2001 911q0 31 -170 193q-106 98 -211 196q182 -391 360 -509q2 16 11.5 56.5t9.5 63.5zM2959 322q-109 37 -135 36q-86 0 -180 -184q-84 -166 -84 -264q0 -88 20 -127q74 23 166 141q76 98 117 191q-51 0 -80 26 q74 59 99 82q52 52 77 99zM1952 715q-246 254 -391 555q-88 -219 -88 -264q0 -131 137 -226q125 -86 262 -86q16 0 41 8q33 13 39 13zM2241 231q0 94 -99.5 175t-197.5 81q-27 0 -94.5 -34.5t-90.5 -55.5q113 -61 189 -121q57 -51 113.5 -99t138.5 -50q41 45 41 104z M2134 68h-27l-18 -91h29zM2048 61q0 18 -90 72q-37 -127 -98 -127l-17 4q20 49 35 123q12 61 25 125q-10 4 -234 117q-37 -76 -37 -121t40 -136t40 -136q0 -10 -7 -27.5t-7 -26.5h180q47 0 108.5 44t61.5 89zM881 1182q0 72 -72 114q-61 39 -137 39q-55 0 -105 -155 q-39 -129 -39 -205q0 -55 56.5 -119.5t111.5 -64.5q185 0 185 391zM512 1360l-154 22q-39 -27 -118 -75l157 -2q58 0 115 55zM512 1249q-31 23 -72 23q-31 0 -88 -16.5t-88 -16.5q-35 0 -28 61q-25 -12 -41 -43q-6 -14 -84 -14l-15 -4q23 -20 127 -201q86 -150 139 -149h101 q-27 29 -27 69q0 49 33 144q37 102 43 147z" />
<glyph unicode="f" horiz-adv-x="2824" d="M2662 1317q-123 -162 -223 -162q-20 0 -39 27q-14 20 -26 41q-18 -18 -56 -33v10q0 35 -16 65.5t-35 61.5q-20 49 -35 125q37 6 52 37q4 8 16 63q45 -25 106 -55q6 4 99 37q59 23 90 53q-31 -59 -31 -98q0 -10 19.5 -41t19.5 -62q0 -18 -6 -36q32 -31 65 -33zM2662 -147 q-31 -100 -86 -129q-68 -25 -137 -50q-33 12 -67 82q-10 -8 -36 -17t-36 -18l47 41q-68 12 -94 88q-12 35 -21 136q76 18 70 104q18 -18 61 -41.5t60 -42.5l78 49q2 -2 8 -2t35.5 17.5t31.5 17.5q0 -94 35 -217q31 -16 51 -18zM2583 457q0 -63 -97 -166q-55 -57 -196 -176 q-127 -109 -158 -148l82 -71q-168 -41 -500 -134l68 -65q-102 -29 -203 -55q-127 -35 -205 -35l-133 33q-82 -33 -121 -33q-111 0 -215 184q-72 -45 -131 -133q-70 70 -100 115q-41 -35 -56 -52q-27 -31 -40 -63q-90 18 -146 74q53 53 268 231q-250 43 -378 324 q-104 225 -105 512v254q84 -47 170 -66q43 129 238 635q33 -86 116 -250q31 72 101 217q70 -135 106 -190q70 -106 142 -160q82 68 164.5 133.5t191.5 97.5l-2 -8q-4 -68 29 -106q59 74 237 162q254 127 268 135q-66 -102 -67 -183q121 74 276 183q-61 -125 -123 -252 q-66 -152 -57 -268l6 -82q59 -37 150 -33l-131 -328l45 -67l202 47q-27 -76 -98 -172l76 -58q41 0 68.5 36t31.5 81l-10 -121q84 -18 145 -14q27 23 82 84q9 -20 9 -49zM432 1317q-23 -39 -104.5 -100.5t-118.5 -61.5q-39 0 -72 68q-35 -18 -86 -47l49 55q-25 23 -62.5 90.5 t-37.5 91.5q0 18 31 68q35 57 39 73q6 -2 34.5 -25.5t53.5 -23.5q18 0 45.5 16.5t46.5 16.5q68 0 112 49q-29 -59 -28 -98q0 -55 22 -103q29 -55 76 -69zM449 -147q-100 -106 -240 -179q-35 12 -70 82q-29 -20 -84 -65q2 29 45 73q-29 16 -64.5 79t-35.5 98q0 20 31 71 q35 59 39 76q43 -29 98 -65q66 25 197 79q-8 -20 -33 -57l16 -141q33 -26 101 -51zM2271 385l-121 -2q-156 -2 -268 98q47 49 82 121q-18 0 -54 -6t-55 -6q-51 0 -70.5 21.5t-19.5 78.5q0 63 41 146q37 66 74 133h-117q-2 31 -8 93t-6 93q0 115 23.5 190.5t89.5 174.5 q-162 -102 -420 -232q-37 41 -45 98q-74 -6 -174.5 -143t-173.5 -137l-56 166q-39 -35 -119 -101q-66 45 -135 140q-96 131 -114 153q-33 -51 -76 -204q-43 -162 -76 -224q-59 -104 -158 -104q-23 0 -47 6v-121q0 -90 85 -365.5t136 -340.5q29 -41 136 -80q133 -51 157 -66 q-88 -76 -266 -221q76 25 178 111q141 121 162 135q33 -41 90 -156q49 -98 90 -137q63 -57 160 -55q8 33 31 100q106 -31 149 -31q51 0 88 35l-82 68l533 100q-41 18 -84 51q119 96 237 195q144 119 203 225zM786 -160l-16 23l-57 -39l14 -23z" />
<glyph unicode="g" horiz-adv-x="2349" d="M2187 340q0 -72 -10 -123q-6 -25 -14 -67q-154 82 -154 137q0 18 13.5 46.5t13.5 35.5q0 8 -6 12q18 -8 79 -14q53 -4 78 -27zM1174 813q0 -49 -44.5 -78.5t-95.5 -29.5q-20 0 -59 12t-60 12q109 111 191 234q0 -20 34 -71.5t34 -78.5zM844 1116q-4 -39 -33 -74 q-31 -41 -66 -41q-27 0 -65.5 25t-61.5 25q-27 0 -59 -25q41 49 80 98q51 57 106 58q31 0 53.5 -23t45.5 -43zM2286 -283q-268 33 -512 33q-18 33 -74 33q12 0 -105 -12q-20 23 -49 22q-45 0 -133 -37l39 58q-27 16 -78 16q-358 0 -776 -197q49 53 158 146q-47 37 -178 37 l59 41q-76 39 -238 39l58 41q-72 16 -279 22l80 37q-117 41 -238 41q451 137 822 129q20 12 26 45q4 25 2 65q-4 59 -4 56q0 90 33 151q59 -39 105 -39q31 0 57 29q20 27 41 51q8 -4 47 -37q27 -23 53 -22q18 0 29.5 20.5t30.5 20.5q23 0 56.5 -20.5t53.5 -20.5 q29 0 80 17.5t76 19.5l-2 -27q-2 -45 65 -78l-41 -84l17 -98q106 18 159 119q43 82 43 201q0 137 -77 268q-82 141 -207 180q-49 -115 -62 -121q-76 -16 -149 -35q94 92 115 168q-131 -18 -234 -67q37 39 117 104q-154 78 -238 78q61 31 72 35q41 27 57 55q43 -76 131 -115 q82 -35 172 -28l99 8q14 27 14 59q0 76 -79 162t-161 86q-25 0 -45 -8q37 47 78 68l-37 75q51 -33 205 -186q10 10 10 59q0 82 -75 236q35 -23 75 -74q57 -72 70 -82q14 27 22 78q10 63 17 80q12 -35 24.5 -66.5t65.5 -58.5q-12 -35 -51 -70q-45 -41 -60 -65 q-29 -49 -28 -127q0 -135 61 -236q6 -12 148 -192q31 49 30 129q0 63 -65 121q-57 45 -113 90q8 4 21 4q23 0 65.5 -14.5t65.5 -14.5v15q4 66 -29 145q-31 70 -61 139q74 -35 106 -117q37 57 37 119q23 -45 27 -127q0 12 0 -131l135 199l-4 -31q0 -51 51 -51q29 0 61 18 q-23 -43 -80 -120q68 0 119 -21q-25 -139 -20 -229q-70 6 -108 61t-38 125q0 39 13 72q-90 -80 -115 -256q-10 -76 -12 -355q-4 -240 -37 -372q131 -53 399 -146l-57 2q-123 0 -221 -22q39 -31 145 -174q91 -119 152 -144zM541 666q-27 -41 -52 -84q-49 -76 -81 -76 q-55 0 -105.5 50t-60.5 106q12 -4 26 -5q23 0 65 13.5t64 13.5q27 0 64 -25q45 -31 59 -36q11 12 21 43z" />
<glyph unicode="h" horiz-adv-x="1714" d="M1645 -76q-90 -117 -125 -141q-61 -47 -174 -47q-166 0 -273 112q-18 -47 -29 -118q-10 -61 -20 -123q-10 23 -57 213q-35 127 -105 190q-51 -39 -59 -114q-12 -109 -19 -127q-78 74 -92 249q-8 137 -18 277q-20 131 -117 133q-369 -324 -549 -346q121 20 174 188 q27 84 58 342q29 225 71 306q37 70 125 120q35 23 146 70q78 33 90 57q29 57 67 181q37 113 68 167q51 86 141 138q-74 -104 -145 -246q-94 -178 -94 -258q0 -16 41 -109.5t41 -109.5q0 -211 -195 -426q25 -27 47 -53q35 -35 57 -35q57 0 174 48t175 48q45 0 159 -39 q-37 -37 -129 -98q45 -18 183 -21q117 0 174 -45l-146 -96q53 -23 168 -160q99 -119 187 -127z" />
<glyph unicode="i" horiz-adv-x="1503" d="M1466 791q0 -336 -26 -494q-39 -231 -168 -463q-20 -37 -141 -134t-152 -97l-195 6l70 45l70 -12q55 0 64 51t18 100l12 -39l12 51q0 -33 -12 -81q-16 -70 -17 -80h17q31 0 50 29.5t19 62.5q0 10 -43 96q-37 76 -53 100q-41 -57 -55 -73q-35 -41 -68 -66q-37 23 -63 51 q-8 -76 -37 -221q-43 4 -74 70q-8 23 -32 106l40 -69l13 43q-10 -76 37 -131q25 78 45 215q-27 55 -35 67q-25 41 -45 58q-25 -33 -70 -101q29 74 66 113q66 -43 190 -137q49 31 74 100q59 -18 90 -104q41 -121 53 -136q76 35 119 119l-51 39q63 139 51 184l-31 -26l19 67 l-33 9q-68 0 -68 -60q0 -12 4 -29l-12 64q-39 -37 -123 -100l4 79q0 51 -133 160q-66 -2 -123 -203q-31 4 -92 111t-123 105l-110 -195q63 -41 106 -107q47 -72 45 -143v-10q-90 199 -157 201l-109 -146q0 -41 67.5 -111.5t110.5 -70.5q41 0 70 24q23 -31 64.5 -52t78.5 -15 q-33 -10 -73 -10q-117 0 -213 63q-109 72 -109 178q0 20 4 43l-74 23q-25 66 -93 183.5t-93 178.5q-43 104 -43 205l18 88l35 -12q33 84 37 217q2 113 4 223q43 35 150 180q133 176 182 234q104 119 168 119l57 -37q25 14 54 57q39 61 45 68q49 0 168 -137l49 36 q74 -90 84 -104q45 -59 69 -111l62 64l114 -250q88 -174 156 -209q0 -16 7 -54t7 -56zM1198 6q-35 -61 -108 -149q8 35 30 100v-10q0 -16 10 -29q29 49 68 88zM930 57q0 -76 -41 -137q20 55 14 113q0 -12 12 -25q15 12 15 49zM870 -80q-43 33 -73 94q6 10 14 19h2 q4 -8 14 -25q14 12 13 31q-1 -33 30 -119zM492 -332q-57 29 -111 99l41 -37q10 23 10 43q0 29 -14 39q2 2 4 2q19 -1 70 -146zM1425 866q-49 -47 -73 -94q20 -25 59 -70q14 53 14 164zM1366 899q0 131 -135 195q-29 -61 -98 -176l-9 131q16 33 17 63q0 76 -99 121 q-29 -29 -65 -94q-41 -72 -41 -101q0 -18 35 -86q39 -76 45 -98q0 2 33 25q20 14 38 14t148 -119q-20 70 -21 84l7 23q18 -29 49 -90q6 37 26 102q12 -12 11 -39q8 31 28 88l6 -6q0 -164 -90 -191q115 23 115 154zM1438 436l-39 -37q-8 29 -8 164q0 111 -97 139l-37 -51 q-6 10 -51 103q-14 -53 -28 -105q-25 -68 -58 -86q-6 12 -6 29q0 33 43 86t43 88q0 29 -106 100q-27 -27 -58 -75q0 -35 21.5 -99.5t21.5 -97.5q0 -16 -10 -31q-37 90 -37 203q-20 -45 -76 -115l-2 23q-2 29 21.5 78t23.5 71q0 33 -52 122t-81 112q-61 -63 -61 -203v-25 q0 -82 -17 -127q-47 61 -143 183q39 12 70 -19q51 104 141 217l51 -12q2 23 15.5 67t13.5 64q0 29 -52.5 81t-82.5 65q-25 -33 -47 -66q-33 -45 -33 -68q0 -6 39 -42.5t37 -81.5l-2 -17q-88 119 -162 178q10 6 84 -4q27 55 39 74q31 51 57 51q14 -10 180 -176q14 27 49 51 q49 0 99.5 -65.5t83.5 -73.5v121q0 27 -27 80l-90 -37q-2 4 -64 117q-47 86 -83 86q-16 0 -35 -15q-29 -23 -33 -24q-25 49 -141 163q-29 -23 -29 -71q0 -25 10 -74t10 -68l-22 -63q-23 35 -57 113l-13 -37q-10 29 -22.5 56.5t-40.5 43.5q-35 -33 -66 -127l-10 33 q0 -25 -14 -55q-23 -47 -25 -54q-27 27 -90 52q-29 -41 -80 -134q20 -43 53 -135q-20 8 -50 34t-50 32q-66 -135 -66 -164q0 -23 19.5 -62.5t19.5 -62.5l62 41q-2 10 -16.5 35.5t-14.5 32.5q0 16 23 28q31 -35 30 -71q0 -20 -10 -37l12 -4q12 0 64 96q31 57 63 115 q-53 0 -67 139q43 -10 49 -55q10 -61 25 -82l38 39l41 -25q20 51 66 121q-41 29 -62 119l58 -64v27q0 53 10 88q14 -29 14 -51l23 36l6 -34q0 -47 -43 -121t-43 -103q0 -16 24.5 -50t24.5 -128l4 -6q0 -18 -20 -37q-25 55 -47 111q-35 68 -86 65q-12 -39 -12.5 -81 t-20.5 -70q-12 29 -10 63q-47 -92 -47 -88q0 -23 43 -104q59 -106 59 -107q-35 2 -88 86t-98 86q-31 -49 -93 -145q37 -25 75 -92.5t38 -112.5l-6 -22q-45 49 -88 98q-55 57 -103 86q-31 -82 -30 -82q0 -27 92 -104q68 -57 117 -93q27 39 94 101q33 0 49 -11l47 125 q18 -39 19 -63q0 -23 -20.5 -50.5t-37.5 -49.5q-12 25 -45 24q-33 0 -61 -51q-45 -74 -47 -76q-66 23 -142 84q-63 53 -125 105q16 -66 68 -162q68 -127 82 -158h-55l-9 -53q47 -78 95 -154q61 -92 143 -90l39 94q-25 43 -84 119l-8 -49q-31 88 -111 121q-2 4 8 4h21 q51 4 92 -33q23 -20 63 -80q70 80 152 164q47 0 108.5 -57.5t79.5 -106.5q37 53 74 109q27 27 111 31q72 164 190 163q88 0 135 -151q35 -113 35 -258q0 -33 -4 -58l135 142v71l-49 19q39 47 68 131q23 69 43 141zM1200 201q-68 150 -133 186q-131 -133 -131 -178 q0 -16 26.5 -41t30.5 -35q-2 106 13 152q10 -45 22 -92q12 -57 12 -97q12 23 21.5 34t25.5 17q37 19 113 54zM1053 80l-45 45l-13 -14l43 -43zM227 823q0 25 -43 73t-67 58q2 -90 26 -258q84 98 84 127zM1006 1329q0 -47 -25 -96q-51 51 -80 164q29 -45 78 -137q27 42 27 69 zM1219 895h-23v59h23v-59zM1067 924l-18 -6l-68 174h20zM1380 303l-86 -94l-14 8l88 96zM549 920h-23v84h23v-84zM989 510l-78 -201l-18 8l78 193h18zM502 766q-39 43 -66 133q0 -18 43 -70q20 53 21 158q0 -23 -3 -69t-3 -68q0 -37 8 -84zM598 788l-29 -73l-18 6l29 67h18z M885 348q-35 2 -35 -37q0 -16 8 -39q2 45 -46 112t-91 67q-29 0 -74 -74q-37 -61 -49 -105q6 33 47 138q37 98 37 116q0 41 -47 95q-41 43 -86 69q-45 -20 -60 -51q12 27 48 76q100 -47 163 -150q86 -139 127 -178q14 14 13 37q22 -23 45 -76zM612 494q0 -70 -22 -119 q-70 27 -90 139q0 -20 45 -39q8 -4 30 -51q37 37 37 70zM365 590q-59 35 -136 137q18 -23 54 -61q4 6 4 14q0 -4 -31 86q18 -35 57 -61q27 -19 52 -115zM371 365h-23v57h23v-57zM434 231h-18l-37 115h18zM326 -55q-18 6 -123 110q53 -29 82 -47q10 10 10 37q31 -59 31 -100z " />
<glyph unicode="j" horiz-adv-x="1781" d="M1714 360q0 -53 -84 -100q-76 -43 -147 -43q-18 0 -31 2l-20 -49q0 -51 53 -98l94 -82q-86 -18 -137 -17q-16 -139 -154 -239q-129 -94 -276 -94l-105 36l-67 -24l-119 61l-184 -86l-250 103q-20 80 -43 159q-23 39 -176 39q80 57 127 156q63 133 90 166q-31 25 -82 80 l-53 -21l12 49l-27 23l-135 -23q61 53 172 226l-47 -4q82 131 100 258l-75 -47q37 119 100 118l35 95q-45 72 -86 114l86 -22l94 98l-6 -70l6 -41l76 33l-47 -63q47 -27 73 -54l-86 -14l80 -174l203 549q10 27 -33 94q-74 -14 -125 -49q18 33 103 96q74 57 86 101l61 -62 q31 45 51 111q2 -59 15 -101l149 86l-22 -53q29 -20 86 -63h-111q96 -61 121 -127q-74 35 -113 61q-20 -66 -20 -119q0 -4 53 -135q61 -145 63 -153q27 53 101 159l-58 -252l197 -401q63 0 143 86q92 -51 185 -104q104 -69 104 -175zM1034 1423q-6 29 -57 60q-66 37 -76 49 q41 14 105 14q-29 0 -80 25q16 14 32 43q-45 -29 -137 -86q-14 25 -12 55q0 -37 -39 -55q-23 10 -47 37v-9q0 -51 -156 -98q20 4 43 4q18 0 54 -4t53 -4q0 -16 8 -49t8 -51q16 33 51 100q29 -35 86 -100l76 112q29 -18 88 -43zM1135 1114q0 16 -8.5 27.5t-8.5 15.5 q-18 -20 -43.5 -66.5t-25.5 -68.5q0 -18 32 -49q4 14 31 74q23 51 23 67zM1577 535v22l-70 12v-20zM1460 543v57h-22v-57h22zM1702 367q0 55 -61.5 113.5t-114.5 58.5q-10 0 -21 -2q37 -63 74 -129q47 -88 39 -138q25 10 54.5 42t29.5 55zM1479 510v20l-58 15v-21zM1417 557 q0 6 -2 19.5t-2 19.5q0 -6 -25.5 -14.5t-29.5 -12.5q27 0 55 -28q4 6 4 16zM1395 535q-31 31 -49 30q-8 0 -33 -23.5t-31 -33.5q10 -14 31 -41q29 21 82 68zM1604 270q0 88 -51.5 161t-135.5 73q-47 0 -108 -55q29 -45 59 -91q43 -66 45 -90v29q0 14 -2 46t-2 46 q0 59 27 103q0 -18 -2 -54.5t-2 -54.5q0 -164 73 -164q48 0 99 51zM1567 -12q-70 57 -195 182q25 -59 62 -182h133zM1294 252q-57 100 -104 100h-80q78 -51 184 -100zM1102 352l-29 43l-16 -10l28 -45zM1417 145v70q0 35 -130 314.5t-161 312.5q18 -59 19 -94q0 -20 -4 -35 q-59 164 -117 325q-104 293 -104 353q0 8 4 12l-54 -62q-29 35 -90 86q6 -47 6 -100q0 -180 -75 -491q25 188 61 567q-12 -31 -49 -86q-12 41 -39 125l-74 -426q-47 -252 -110 -414q-12 16 -11 47q6 59 7 49q0 20 -9 39q-70 -201 -96 -399q-8 -45 -70.5 -96.5t-70.5 -83.5 q29 29 61 51q-66 -94 -213 -270h109q16 25 55 71q-14 -47 -53 -80l29 -43q57 59 125.5 97.5t136.5 74.5q27 -33 67 -34q-8 16 -8 34q0 133 129 236q121 98 250 98q37 0 123 62q25 -2 158 -129q119 -117 147 -156q-8 23 -47 100q33 -10 55 -55q31 -58 43 -70zM1053 307 l-13 109h-22l14 -109h21zM1081 322v14q-29 -43 -51 -43q-45 0 -45 49q-25 -2 -24 -45q0 -8 4 -14l92 -15q26 19 24 54zM520 799l-8 18l-70 -41l7 -18zM543 766q0 8 -6 8t-21.5 -8t-21.5 -8q10 -16 30 -45q19 33 19 53zM1419 -45q0 115 -92 232.5t-205 117.5q-35 0 -61 -55 q74 -74 125 -207t51 -240q0 -49 -14 -73q78 12 137 78.5t59 146.5zM995 403q-10 -6 -41 -36q-49 27 -65 26q-35 0 -90.5 -28.5t-63.5 -57.5q92 23 209 23q20 0 35.5 25t15.5 48zM258 889l-16 12l-62 -67l17 -13zM479 748q-98 -20 -86 -21q-6 0 -10 4q16 18 33 35 q25 23 39 25q-2 8 -47 114q-37 86 -37 105q0 14 20 14q10 0 32.5 -5t33.5 -5q-41 16 -62 39l35 41l-76 -37q0 20 5.5 57t7.5 55q-57 -88 -95 -88q-18 0 -36 11q53 -59 65 -82q25 -41 25 -103q0 -29 -11 -47q-8 39 -26 113q-6 -45 -33 -133t-33 -135q4 -4 4 -13 q0 -20 -32 -47q-41 -35 -45 -41q25 12 73 37q-59 -115 -192 -270q88 4 135 53q41 59 84 117q-6 -14 -48 -81t-42 -79q0 -8 24 -51q80 100 133 162q27 -23 64 -23q-8 12 -8 35q0 45 39 127q32 68 67 117zM1221 -182q0 104 -58 258q-70 180 -151 180q-59 0 -103 -164 q-33 -131 -32 -217q0 -223 135 -223q82 0 141 41q68 47 68 125zM936 330h-53q-86 0 -191 -72q-113 -76 -112 -158v-63q29 -12 82 -39q27 59 133 166q114 113 141 166zM975 264l-17 2q-74 6 -177 -100.5t-103 -179.5q0 -12 43 -103.5t43 -101.5q0 -27 -37 -62q14 -6 55 -30.5 t58 -24.5q10 0 30.5 7t28.5 10q-39 92 -39 206q0 209 115 377zM387 369l-12 84h-23l13 -84h22zM338 420l-14 57h-21l14 -57h21zM371 342q0 47 -56 76q-43 -23 -43 -76q0 -51 43 -74q18 16 37 35t19 39zM295 426q-74 -10 -74 -72q0 -43 49 -71q-14 23 -14 53q0 63 39 90z M651 -20v22l-106 12v-20zM510 -25l-14 48l-19 -7l15 -41h18zM752 -219q0 59 -74 104q-10 6 -123 56l55 8q49 -27 113 -80q-20 102 -78 102h-100q-14 -12 -15 -41q0 -4 51.5 -86t49.5 -143v-10h6q23 0 69 35t46 55zM528 -57v22l-63 12v-20zM461 -18v18l-51 12v-16zM444 -41 q-16 27 -49 27q-100 0 -119 -174q10 43 68 90q51 41 100 57zM616 -274q0 27 -42 119t-62 92q-215 0 -215 -156q0 -102 106 -103q12 0 27 3q-14 29 -14 69q0 61 45 174q-2 -16 -12 -90q-10 -53 -11 -88q0 -106 99 -106q79 0 79 86zM985 825q-27 12 -78 35q-63 -55 -63 -145 q0 -35 14 -105.5t12 -107.5v-23l-49 555q0 -45 25 -198q20 35 20 110h56q45 -66 63 -121zM1102 481h-19l-63 164l18 6zM399 877h-18l-39 102l16 6zM659 1022q-45 -365 -137 -754q-59 47 -59 86q0 25 20 52q-8 -23 -8 -48q0 -74 78 -118q-14 49 -14 84q0 51 20 131 q14 63 31 129q36 182 69 438zM338 735l-12 -192h-23l12 192h23zM958 850q0 18 -29.5 47t-49.5 37v-60q34 1 79 -24z" />
<glyph unicode="k" d="M2048 799q0 -59 -63 -103q-55 -29 -113 -59q31 -23 63 -43q35 -27 35 -59q0 -143 -125 -230q-109 -74 -246 -74q-18 0 -81.5 -56t-102.5 -56q-16 0 -42.5 15.5t-45.5 15.5q-39 0 -125 -60q39 86 84 86q10 0 42 -5t56 -5q100 0 299 129q223 145 222 272h-224q6 47 131 111 q170 88 173 90v45q-35 27 -95 53q-49 23 -98 43q66 43 193 133q2 59 -80 60q-14 0 -48 -2t-47 -2l-34 2q41 37 79 114l-12 74q-61 -14 -102 -84q-33 -63 -66 -125q-66 31 -98 64q-43 -55 -55 -144q-10 -76 -21 -151q-39 6 -166 102q-45 -37 -45 -162q0 -31 4 -100 q2 -59 2 -84l-4 -37h-65q-23 0 -55.5 27t-90.5 20q-10 -27 -10 -63q0 -63 72 -137q82 -90 100 -135q98 66 156 200q55 129 108 256q90 164 258 293q-106 -106 -186 -313q-104 -264 -145 -332q-18 -29 -164 -162q-133 -121 -133 -143q0 -27 31.5 -91.5t31.5 -82.5l-22 -137 q-33 41 -117 216t-137 250q-88 125 -172 125q-211 0 -463 -122q287 188 547 170q29 100 28 184q0 25 -35 57q-27 25 -53 47q-27 -33 -88 -32q-61 0 -123 40q-70 45 -69 105q0 20 22.5 38.5t40.5 33.5q-39 59 -80 116q-14 33 -14 146h18q33 0 62 12q-47 94 -47 211 q18 10 86 74q61 57 80 57q27 0 55 -31q20 -25 41 -49q51 29 102 29q0 -55 -31 -178q92 -39 93 -105v-22q-2 -14 -2 -21q0 -53 116 -57q18 -14 19 -55q0 -35 -73 -154t-101 -123q43 127 108 215l-12 72q-25 2 -68 -22.5t-63 -24.5h-14q4 25 36 118q27 82 27 107q0 12 -41 12 q-23 0 -50.5 -16t-51.5 -31v70q0 23 26.5 68.5t30.5 72.5q-45 -2 -102 -67q0 -2 0 65q0 45 -45 86q-25 -16 -45.5 -70.5t-38.5 -64.5q-41 -23 -41 -49q0 -33 22 -94q25 -68 29 -95l-68 13q-10 -8 -10 -47q0 -25 53 -95l74 -90q-8 -8 -96 -51q2 -47 59 -74q94 -43 96 -45h72 q-115 270 -106 473v17v88q10 -326 225 -608q109 125 203 122h12q-96 -39 -151.5 -117.5t-55.5 -179.5q0 -96 76 -198q70 -86 139 -170q55 68 55 143q0 74 -79.5 152t-79.5 112q0 35 47 85.5t82 50.5q18 0 59 -22t57 -26q10 25 11 78q0 33 -5.5 96.5t-5.5 83.5q0 127 68 127 q41 0 69.5 -32.5t55.5 -63.5q23 82 43 164q33 123 88 123q33 0 80 -47q45 66 92 131q57 78 135 76q27 -78 4 -181q49 -16 101 -34q59 -20 59 -72q0 -49 -40 -89t-89 -50q6 -4 84 -47q45 -27 45 -78zM813 291q-18 -68 -88 -160q-78 -109 -133 -108q-33 0 -74 79 q-76 -80 -127 -79q-43 0 -80 63q-76 -82 -145 -127q-35 57 -35 115q-72 0 -115 16q0 303 228 283q10 18 6 47q-8 45 -8 47q102 51 190 51q41 0 55 -16q16 16 27 45q16 47 18 51h99q31 0 84 -59q43 -47 67 -90q-76 43 -229 118q-6 -6 -2 -53q6 -57 6 -59h-260q-8 0 -8 -6 q0 -2 47 -50q-14 -37 -113.5 -56t-111 -64.5t-78.5 -120.5q18 -39 63 -39q47 0 109 31q0 -16 -11.5 -49t-11.5 -52l4 -26q31 23 81 80t81 79q0 -80 31 -121q33 6 96 68q72 72 96 84l23 -137q76 2 125 105.5t94 109.5z" />
<glyph unicode="l" d="M2015 1264l-24 -148q2 78 -136 215h93q26 -18 67 -67zM1724 1313h-282v28h282v-28zM2038 705h-29l-31 339h27zM2054 233h-29l-16 330h29zM1292 1313h-393v28h393v-28zM813 1296l-315 33v27l315 -33v-27zM1970 244q0 -287 -153 -285l-1670 16q-68 133 -67 441v420 q0 209 33 305q57 164 223 162l1495 -17q154 -2 154 -641q0 -133 -7.5 -279.5t-7.5 -121.5zM317 1343h-75v29h75v-29zM227 1335l-153 -102l-13 22l152 101zM1518 -96h-299v28h299v-28zM53 825h-26v314h26v-314zM1118 -96h-299v28h299v-28zM53 709l-33 -332h-26l33 332h26z M653 -96l-362 16v29l362 -17v-28zM223 -96q-16 -8 -41 -8q-51 0 -108.5 42t-57.5 93q0 104 21 194q2 8 8 19q0 8 0 -105q0 -243 178 -235zM1399 979h-29l-16 -121h26zM1333 963h-22l-45 -97l22 -10zM1919 76v1145q-82 2 -911 2q-115 0 -342.5 23.5t-337.5 23.5 q-145 0 -191 -160q-25 -82 -24 -281l2 -630q111 119 223 235q125 143 172 273q-111 -4 -111 79q0 29 6.5 78t6.5 72q8 -6 84 -43q51 -25 73 -55q18 59 23 69q16 37 37 60l12 -152q0 -4 -37 -111.5t-43 -117.5q88 39 264 102q123 18 244 35q158 25 211 92l-51 53h-4 q-4 0 -8 17q-2 12 0 18l73 144l15 -41l28 41q39 -18 86 -64q-6 18 -76 86l27 2q55 0 64 -63q8 -92 26 -117q-2 -100 -315 -223q262 25 295 28q158 27 282 97q-109 -135 -344 -191l-446 -74q-270 -53 -428 -180q158 -23 313 -45q240 -35 270 -78q-119 -61 -301 -45 q16 -68 17 -188h1046q18 0 44 32t26 52zM549 762l-35 94l-25 -8l37 -86h23zM469 729v123h-27v-123h27zM784 102q0 23 -19.5 57t-19.5 40q-16 -27 -16 -58q0 -49 23 -63q-10 -10 -17 -10q-12 0 -39 45q-35 55 -49 69q-16 -16 -22 -41q31 -45 139 -118q0 12 10 37.5t10 41.5z M752 4q-49 27 -99 53q-61 41 -61 86q0 23 10 32t21 22h-117q-57 0 -313 -193h559zM1624 381q2 25 -33 106q-8 -31 -8 -69q0 -47 14 -107q-86 51 -272 115q16 -31 49 -47.5t66 -30.5h-8q-43 -2 -84 34t-41 79q0 12 4 24q2 -2 6 -2q6 0 26 43q-8 10 -32 11q-33 0 -62 -15 q10 14 20.5 29.5t35.5 15.5q18 0 23 -8t24 -8q18 0 40.5 23.5t39.5 23.5q31 0 81 -43q41 -35 64 -70q8 10 8 25q0 20 -16 37q55 -33 55 -172v6zM1563 86q0 25 -17 64q-41 -76 -53 -93q-33 -35 -92 -34q-113 0 -168 36q0 8 22.5 20.5t24.5 14.5q-14 14 -63 15q70 33 90 73 q0 -6 -11.5 -26.5t-11.5 -34.5q0 -10 4 -19q43 55 152 148q8 -25 37 -37q35 53 47 53t28 -12q-25 -16 -30 -29q-16 -31 -19 -35q29 -27 60 -26v-78zM516 918l-16 -21l-56 37l15 22zM389 729h-27v139h27v-139zM885 115l-21 -62l-22 8l20 54h23zM1565 358v74q0 33 -62 80 q-55 41 -94 51q45 -68 113 -129q-51 33 -156 84q-8 -10 -8 -35q0 -10 2 -29.5t2 -29.5q154 0 203 -66zM1444 186l-17 17l-88 -86l17 -19zM1503 104l-12 54q-68 -39 -211 -101h156q22 16 67 47z" />
<glyph unicode="m" d="M1855 1151q0 -55 -51 -117q-43 -49 -88 -98q8 33 60 119q49 80 49 88q0 29 -43 112q-41 -35 -41 -63q-8 2 -53 47q-16 -23 -52 -63q6 23 6 59q0 20 -3 58t-3 57q8 -8 11.5 -38t33.5 -46q16 -10 25 -13q18 0 41 21q35 25 41 29q4 -14 39 -78q28 -51 28 -74zM2001 938 q-16 -8 -44 -33.5t-44 -34.5l-121 25q14 -2 35 -2q127 0 174 45zM2038 920q-27 -57 -60.5 -77t-97.5 -20q-90 0 -176 64q-25 -37 -50.5 -75t-76.5 -38q-16 0 -33.5 -15.5t-40.5 -15.5q-10 0 -36.5 11.5t-26.5 19.5l16 12v11q0 25 17 77l-158 -4q-41 0 -78 19q-57 33 -70 35 q8 8 54 63q31 39 59 53q-29 47 -45 183q-16 113 -66 153q23 0 71 11.5t73 11.5q12 0 27.5 -6.5t45.5 -6.5q41 0 78 -36q20 20 62 143q31 -33 73 -68q-20 4 -36 21q-6 -14 -39 -70q-25 -43 -25 -73q-25 14 -69 49q-25 -2 -25 -47q-57 23 -176 55q2 -25 0 -68q-2 -49 -2 -67 q0 -92 86 -187q-33 -29 -82 -94q47 -45 170 -45q51 0 61 35q-2 -4 -2 -16q0 -27 13 -80q16 -63 30 -64q57 0 113.5 51.5t52.5 108.5q72 -61 119 -76q31 -8 143 -8q80 0 107 70zM815 1114q-16 0 -51 -6t-51 -6q41 0 55 14q-18 10 -43 39q-35 43 -37 45q53 23 53 92 q0 12 -4 23h17q18 -2 30 18q-31 20 -61 41q-37 25 -68 25q-37 0 -94 -29q16 18 35.5 39t44.5 21q23 0 82 -23q70 -25 92 -29q-10 -49 -33 -104q-31 -74 -61 -78q41 -21 94 -82zM688 1102q-88 -8 -88 -55q0 -12 6 -29h-2q-20 0 -39.5 20.5t-19.5 40.5q0 16 11 28.5t11 18.5 t-4 15q74 -37 125 -39zM575 1436q-47 2 -71 26q-45 -31 -45 -63q0 -8 2 -28.5t2 -35.5l-2 -14q-10 0 -31.5 -9t-38.5 -9q-23 0 -31 10t-16 22q-10 -10 -10 -16q0 -57 51 -163.5t96 -129.5q-12 8 -57 62.5t-49 54.5q-49 0 -49 -33q0 -4 2 -10q-20 -14 -39 -29.5t-19 -46.5 q0 -25 13 -57q27 20 30 63q0 -18 9.5 -55t9.5 -55q-76 70 -76 94q0 55 33 92q8 6 80 61q-45 49 -45 117q0 39 18 74l49 -23q29 18 60 74q43 76 49 84q28 -22 75 -57zM1440 115q-20 -14 -180 -80q-129 -53 -125 -76q-27 0 -76 8t-72 8q-20 -25 -22 -108q-2 -72 8 -115 q-231 129 -309 303q-23 -20 -41.5 -41.5t-16.5 -52.5l-51 -35q-39 41 -89 132.5t-81 127.5v15q-2 133 80 198q-14 20 -47 38t-58 18q-59 0 -157.5 -82t-110.5 -142q-57 2 -92 72q53 102 131 170q94 78 197 78q94 0 157 -49q27 98 80 180q70 109 148 109q25 0 33 -15.5 t16 -34.5q18 18 53 29q-16 -27 -34.5 -55.5t-18.5 -57.5l2 -28q29 18 92 49h12q39 -2 116 15.5t112 17.5q29 0 69 -17l66 -24q-43 -27 -80 -62q14 -8 24.5 -32.5t24.5 -32.5q-23 -23 -65 -23q2 -25 -15 -41q53 -53 107 -106q57 -66 57 -127q0 -18 -4 -39q45 -59 55 -68 q31 -29 70 -28q17 0 35 4zM1311 92q-61 86 -62 141q0 29 15 54q-106 115 -209 162q37 72 80 90v123q-172 0 -326 -144l-10 37q0 29 16 55q-25 -12 -70 -43q-16 31 -26 86q-14 70 -21 88q-92 -102 -151 -305h-12q-37 0 -46 17q-16 27 -24 32q-29 16 -113 17 q-109 0 -185.5 -58.5t-96.5 -164.5q55 106 116.5 149t173.5 43q102 0 185 -72q-18 -14 -65.5 -122.5t-47.5 -133.5q0 -20 40 -75.5t46 -77.5q4 6 31 71q16 39 63 41q18 -20 27 -20q6 0 20 31q10 18 21 37q98 -190 211 -271q6 16 16 88q8 51 31 80q12 -2 68 -12q41 -8 65 -8 l-63 65q39 0 90 -18q43 -16 86 -31q-27 25 -27 41q0 12 4 18q68 -22 150 -10z" />
<glyph unicode="n" d="M1886 1061q-8 -190 -28 -270q-47 -174 -168 -168q-20 -25 -74 -25q-27 0 -77 8t-66 8q-61 -70 -189.5 -140.5t-171.5 -121.5q-74 -88 -74 -252q0 -76 23.5 -222t25.5 -220q-92 -51 -126 -51q-59 0 -60 143q0 41 5 102.5t5 67.5v412q0 63 -97 181t-159 118 q-80 -63 -118 -64q-41 0 -50 31q-70 -2 -129 64l-47 -48q-47 31 -47 82q0 18 8 37q-70 12 -94 53q-12 16 -35 109l160 311q41 0 51 -18q23 78 111 229q100 174 151 174q14 0 36 -17.5t30 -31.5q29 33 70 33q27 0 104 -41l10 2q16 0 43 -23q35 -33 41 -34q-4 29 -4 108 q33 14 98 -12q23 47 60 47q76 0 153 -143q2 53 35 53q10 0 21 -8l18 49q145 -20 189 -41q23 -12 49 -59q33 -57 106 -115q119 0 119 -129q0 2 -8 -111q32 -20 100 -57zM1520 834h-11q-86 4 -137 -95q-33 -86 -65 -170q53 16 90 70.5t30 110.5q23 47 50 59q35 15 43 25z M1333 844l-20 14l-103 -119l21 -16zM1174 782l-23 11l-53 -91l22 -10zM1286 684l-22 14l-191 -231l23 -16zM940 741q-74 -55 -154 -49q0 -23 48.5 -77t72.5 -64q33 65 33 190z" />
<glyph unicode="o" d="M2032 942q0 -47 -31 -137t-31 -135l31 -62q-170 -205 -258 -280q-143 -119 -336 -172q0 -90 143 -248q123 -135 226 -195l-21 -73q-168 125 -387 399q-96 -203 -258 -295q-152 -88 -387 -88l29 53l-111 15q37 41 74 79q25 35 39 111q-127 25 -305 0l16 35 q-68 43 -193 141q-8 29 -106 74q-109 49 -133 78l47 14q-43 41 -80 61q12 10 119 29q84 16 84 70q0 23 -10 49q152 78 303 96l-152 144q-90 96 -86 178l31 12q-33 47 -66 152l43 75q-14 115 -14 99q0 51 37 92q-25 109 -94 323q166 -33 221 -94q14 -2 20 8.5t21 8.5 q94 -63 143 -113l49 49q33 -51 111 -145q45 43 63 80q41 -45 117 -144l68 33q49 0 69 -64l35 -96l49 47l29 -32q33 90 100 227q88 174 109 221q76 -98 131 -221q68 -143 67 -244l-28 -86l57 -41q76 72 117 129l41 -33l33 64l32 -31q25 31 84 78q-2 -29 48.5 -121t50.5 -174z M1446 8l-21 47l-22 -8l18 -39h25zM1667 -238l-102 105l-17 -19l103 -102z" />
<glyph unicode="p" horiz-adv-x="1925" d="M1413 1180l-37 -86l-22 8l37 78h22zM608 1548h-10q-49 0 -86 17q4 4 18.5 38.5t22.5 34.5q10 0 22 -28q8 -18 15.5 -35t17.5 -27zM1663 608q-14 -23 -29 -45q-20 -29 -45 -28q-27 0 -83 4t-83 4q6 0 45 29.5t74 29.5q14 0 29 -6v49zM1071 985h-8q-12 0 -119 39 q68 0 70 23q28 -23 57 -62zM1839 135q0 -16 -98 -115q-113 -111 -123 -122q-23 -31 -47 -103q-23 -63 -47 -88q-37 -37 -115 -37q-29 0 -85 16.5t-85 16.5q-76 0 -231.5 -48t-231.5 -48q-102 0 -299 55q-233 63 -233 131q0 -2 16 47t16 78q0 63 -41.5 178t-41.5 174 q0 61 47 113q8 8 96 80q0 80 -62 334l60 22v-18q-2 -31 10 -58q10 43 33 127q4 -23 0 -59q-4 -51 -4 -61q0 -23 16.5 -57t16.5 -46q0 -23 -23 -41q29 -31 29 -59q0 -8 -13 -66l23 -6q16 0 47 5t47 3v291q6 -59 21 -96q10 35 84 143q-76 -152 -76 -215q0 -20 7 -60t7 -63 l86 -45q43 109 43 264q0 78 -86 222q-92 156 -162 155q-23 0 -65.5 -4t-63.5 -4q70 14 105 31q-27 12 -60 45q-25 29 -51 55q74 -37 210 -133t210 -135q43 133 43 248q0 84 -20 151q-31 96 -93 97q-27 0 -90 -46q-45 -33 -90 -63q12 39 64 76q43 29 86 59l-80 49 q135 -14 211 -106q68 -96 135 -193q86 29 86 80q0 80 -16 90q-4 2 -82 2l-62 11q31 31 96 38q25 80 58 99q4 -70 33 -209q98 59 137 113h73q-43 -41 -49 -89q-2 -6 -2 -102q-31 25 -96 64q-82 -102 -164 -205q-39 -63 -39 -281q16 -10 56 -10q88 0 168.5 75.5t80.5 164.5 q0 16 -4 30q8 -16 47 -151q143 14 261 57q35 -31 81 -31l78 9q-43 -12 -84 -25q-51 -16 -75 -41q4 -4 67 -45q43 -29 57 -57q-158 94 -237 94q-176 0 -346 -131q-182 -139 -183 -310q0 -37 80 -84q-41 -8 -120 -36q-18 29 -123 98q-25 -94 -25 -350q0 -70 -63 -148 q-27 -31 -117 -116q80 8 203 71q115 61 165 62q106 0 166 -45t140 -48q-76 82 -303 222l-3 53q-2 106 19 217h68q27 0 141.5 -80t140.5 -80q80 0 96 49q4 10 4 107q0 18 36 104t48 86q10 0 7 -45q37 -14 130 -18t134 -21q66 -25 88 -98l-64 -31v-57q49 -23 99 -45 q61 -31 61 -78zM1677 119v155q-31 0 -99.5 4.5t-104.5 4.5q-63 0 -111 -11q10 -59 39 -137q8 37 35 113l53 -15l-14 -112q25 0 77 3t78 3q31 0 47 -8zM1565 0v29h-74v-29h74zM1374 -119q0 16 -28 39q-35 27 -41 39q-16 -16 -86 -41q-6 -2 -15 -6q14 -2 47 0v-64 q98 33 123 33zM1008 274q-12 0 -36 -6t-36 -6q-25 0 -30 7t-9 18q14 16 55 16q-23 10 -69 23q-27 -72 -27 -127q0 -33 10 -64h74q9 20 68 139zM518 256l-24 8l-19 -41l21 -10zM358 281v59h-28v-59h28zM958 -223q-92 0 -122 20q0 -39 -19 -57q18 0 55 -37q29 25 86 74z M496 63q-35 0 -35 54l-47 -31q-10 0 -41 33q0 -10 -17.5 -30.5t-17.5 -31.5q35 -16 88 -51q35 65 70 57z" />
<glyph unicode="q" horiz-adv-x="1898" d="M1872 569q-18 -10 -146 -94q16 -23 33 -80q-18 -18 -43 -18q-29 0 -84 18q-70 25 -84 29q-8 -12 -8 -29q0 -14 5 -40.5t5 -41.5q0 -18 -39 -18q-20 0 -107 80t-108 80q-20 0 -48.5 -48.5t-47.5 -48.5q-51 0 -70 72q-12 55 -24 111q147 -55 276 -56q213 0 316 15 q0 8 14 15t17 9q-61 4 -158 2q-133 -6 -156 -6q-178 0 -295 51q31 90 170 140q16 -16 27 -76q12 -68 22 -84q33 16 76 64.5t68 62.5q25 -45 20 -117l8 -12q70 0 77 42t16 87q20 0 61 -33q27 -23 55 -47q12 8 64 51q33 29 78 35zM1153 870q0 -41 -43 -61q-35 -18 -78 -18 q-37 0 -82 27.5t-69 60.5q47 53 135 168q2 -2 78 -91q59 -66 59 -86zM1153 739q0 -125 -137 -125q-70 0 -96 66q-18 61 -37 125q70 -47 141 -47q74 0 123 33q6 -27 6 -52zM958 547q-25 -14 -45 -89t-92 -100q-8 33 -49 97q-6 2 -20 2q-47 0 -112 -81t-114 -81h-10 q-14 25 -14 65q0 31 10 54q-10 10 -8 10q-39 0 -89 -25.5t-108 -23.5q-8 16 -8 33q0 31 20 69q-23 23 -67 49q-72 41 -76 45v103q20 20 47 20q23 0 49 -39q20 -29 41 -57q25 8 65 40t64 40q18 -33 19 -115q12 0 34.5 -7t36.5 -7q8 43 33 129q33 -16 74 -78q31 -47 86 -51 q10 18 18 76q10 76 13 84q49 -2 102 -54q59 -57 86 -63q-80 -45 -264 -62q-139 -10 -281 -20q119 -23 226 -23l96 -2q118 1 237 62z" />
<glyph unicode="r" d="M2001 236q0 -283 -37 -398q-68 -215 -285 -215q-63 0 -194 23.5t-197 23.5q-92 0 -279.5 -23.5t-281.5 -23.5q-43 0 -131 15.5t-131 15.5q-31 0 -98.5 -16.5t-102.5 -16.5q-59 0 -184 152v608q0 35 31.5 105.5t31.5 105.5v668q0 33 -31.5 93t-31.5 93q0 55 80 132t137 77 q70 0 215 -24.5t215 -24.5q47 0 144.5 16t144.5 16q49 0 148.5 -16t148.5 -16q59 0 179 16t179 16q102 0 201 -36q129 -47 129 -129v-1237zM1921 1407q0 152 -233 152q-61 0 -187.5 -16.5t-187.5 -16.5q-49 0 -144.5 16.5t-144.5 16.5t-147.5 -16.5t-149.5 -16.5 q-57 0 -171 16.5t-171 16.5q-209 0 -209 -107v-1237h119q29 0 113 48t112 48q29 0 136.5 -56t136.5 -56q59 0 215 82v202q-39 29 -105 33q43 -2 -112 -2q-35 0 -86 14l28 41h178q-55 78 -149 82t-123 49q61 16 96 15q-53 45 -65 102l12 2q35 0 86 -57q72 -80 76 -82l-2 80 q0 49 8 80q43 -31 49 -92q8 -102 10 -109q20 -63 97 -104v378q-41 57 -123 60q-70 2 -140 2q-33 4 -55 22q76 29 207 23q-86 68 -121 102q-68 61 -102 121l14 4q53 0 127 -96q0 16 -7 49t-7 49l24 54q37 -61 47 -129q12 -74 23 -97q27 -51 113 -110v282q-2 4 -60 62 q-35 37 -37 73q70 -25 92 -73q4 84 7 90q8 47 39 78q20 -117 12 -351q94 39 127 95q20 31 28 98q10 61 33 94q25 -51 4 -160q35 25 68 48q41 27 74 34q-47 -74 -150 -143q-117 -80 -147 -115q-68 -78 -68 -207q0 -72 19 -161q53 51 143 219q86 160 94 166l6 -64 q0 -63 -22 -129q49 43 100 84q80 63 105 64l-64 -95q39 -10 55 -18q27 -14 41 -39q-25 0 -73 9.5t-72 9.5q-27 0 -156 -115q-80 -72 -160 -146l-2 -69l2 -180q61 43 147.5 165.5t141.5 161.5q16 -72 0 -104q49 33 117 67q-20 -66 -96 -116q-106 -74 -121 -90q12 0 41 3t43 3 q61 0 76 -33q-51 -23 -134 -25t-118 -20q-57 -29 -101 -123h166q182 -131 217 -131q20 0 86 35q80 43 152 63q115 35 258 33v72q0 152 -32 433t-32 396q0 35 33 104.5t33 104.5zM1757 88q0 31 -49 76h-123q14 -29 49 -61.5t62 -32.5q20 0 38.5 9t22.5 9zM1374 -86v72l-51 51 h-74q18 -41 39 -80q27 -45 70 -45q8 0 16 2zM1182 180h-101q-25 0 -47 -31.5t-41 -58.5h121q68 61 68 90zM1120 -94l-106 20q-23 -27 -70 -76q6 0 33 -10t47 -10q57 0 96 76zM881 70q0 25 -13.5 38t-27.5 27q-72 -72 -72 -104q0 -23 17.5 -44.5t17.5 -27.5q27 14 52.5 49 t25.5 62zM543 164h-101q-14 0 -40.5 -31t-26.5 -45q0 -10 37 -10q100 0 131 86zM719 -168v74q-96 66 -125 65q6 -33 19.5 -64.5t29.5 -74.5h76zM461 -92q-4 0 -26.5 9t-43.5 9q-31 0 -60.5 -29.5t-41.5 -64.5h139q33 33 33 76z" />
<glyph unicode="s" horiz-adv-x="1916" d="M1855 639q-43 -96 -167 -236q-186 -209 -197 -221v101l-37 14q-39 -27 -49 -55q-14 -49 -21 -60q-12 45 -51 129q-47 -6 -47 -59q0 20 6 -68q-39 0 -57 47q-14 39 -29 80q-29 -20 -52.5 -57t-43.5 -72l-18 129q-55 -20 -82 -129q-2 0 -11 70q-6 41 -45 59 q-29 -29 -41 -65q-16 -47 -26 -64q-10 35 -22.5 68t-41.5 61q-41 -41 -98 -129v17q2 53 -18 112q-47 4 -58 -45q-14 -80 -18 -84q-10 45 -47 129q-35 -33 -60 -80q-80 104 -348 408l647 743q39 -27 72 -76t33 -92q0 -20 -48.5 -107t-48.5 -151q0 -16 13 -38q18 12 67 12 q-6 -10 -47 -51q-33 -31 -33 -56q0 -23 13.5 -64.5t13.5 -64.5q8 16 34 33.5t46 17.5t27 -20q23 47 55 80q0 -31 -6 -94.5t-6 -96.5q0 -127 49 -127q55 0 80 56q14 29 22 104q43 -29 88 -90l74 -102q18 45 57 45q18 0 68 -15q6 16 8 56.5t19 64.5q-74 61 -127 156 q51 12 116 -21q25 43 58 60q-20 43 -21 63q0 14 6 27q-147 29 -241 67q45 25 133 9q27 53 26 88q0 23 -22 47q-31 33 -35 41q-23 -16 -63 -29q-33 -8 -68 -18q-10 18 -12 45l24 43q-45 10 -47 43q-10 6 -29 6q-12 0 -37.5 -5t-37.5 -5q-76 0 -140 88q-59 80 -59 159 q0 25 57 95l78 90zM1405 117l-27 -107h-22l24 107h25zM1294 -102q-25 0 -55 -35v256zM1141 -279h-27v394h27v-394zM1030 -375h-29v490h29v-490zM901 -207h-27v322h27v-322zM774 -55h-29l-16 170h29zM768 686q-18 18 -53 31q-51 14 -60 18q20 20 21 62q0 25 -6 55 q-25 -2 -52 -4q-33 -6 -32.5 -26.5t-18.5 -47.5q-61 61 -84 62v-35q0 -66 -14 -107q-35 23 -82 45q-8 -35 -16 -106q27 -6 62.5 -53.5t33.5 -75.5q31 10 49 10q14 0 26.5 -13.5t32.5 -13.5q49 0 144 35q0 115 49 164z" />
<glyph unicode="t" d="M1968 924q-63 -29 -125 -58q-88 -39 -137 -39q-29 0 -47 13v-9q2 -57 -35 -57q-2 0 -31 6q-18 2 -30 -6q-117 109 -234 215q-115 90 -295 90l-28 -35q209 -6 374 -167q160 -156 189 -367l-27 -55q20 164 -134.5 346t-322.5 182q-23 0 -45 -14q236 -55 357 -252 q106 -174 106 -430q0 -41 -17.5 -140.5t-31.5 -140.5q23 90 23 199q0 231 -91 420q-104 219 -299 288q166 -188 230 -327q76 -162 76 -387q0 -78 -27 -209q-41 -201 -41 -209q113 63 186 215q66 135 76 280q10 -2 49 -8q29 -4 47 -4l29 6q-53 27 -125 27q0 -6 0 213 q0 127 -31 158v59q-8 -33 93 -137q115 -123 127 -146q-35 -16 -97 -22q129 -248 240 -389v-72q-115 -23 -350 4q45 -20 141 -41l-31 -61q0 -33 25 -88q37 -80 39 -86h-133q-74 61 -115 61t-47 -33l-66 66q-336 -160 -405 -160q-104 0 -279 58q-137 51 -272 102v-64l-80 48 v-64l-78 49l8 -41q0 -41 -20 -41q-8 0 -78 4q-47 4 -80 -2v1796h2q63 0 80 74q88 -18 174 -35q139 -27 135 -61q18 45 62 129q55 -41 158 -129q0 133 14 190q82 -23 133 -61l31 63q94 -47 178 -159q39 14 115 47q0 -74 28 -160q23 45 74 102.5t68 90.5q45 -35 100 -144 q20 31 61 31q31 0 91.5 -16.5t91.5 -18.5q-12 -82 -31 -131q20 -31 68 -57q39 -20 77 -43l-49 -29q96 -39 131 -90q39 -67 78 -137zM1350 1241v107h-29v-107h29zM1839 956q-66 18 -127 50q33 10 96 34q-23 0 -64.5 -5t-64.5 -5q-31 0 -73 23q-57 29 -70 32q68 18 76 21 q55 16 67 33q-29 0 -87 -14.5t-89 -14.5q-25 0 -65 29q-31 23 -62 43q90 70 183 114q-23 -4 -110 -38.5t-106 -34.5q-35 0 -84 46t-59 81q-10 -47 -55 -47q-41 0 -150.5 49t-122.5 47q-16 6 -22 6l-2 -2q0 -4 39 -29.5t41 -30.5l-133 -40q-16 27 -39 26q-16 0 -30.5 -13 t-14.5 -28q0 -10 14 -2q18 -68 115.5 -187.5t111.5 -187.5q0 68 -41 107q47 -41 103 -80q-12 55 -117 123q-96 61 -96 129q0 45 84 74q66 23 123 22q29 0 161 -45l-14 -49q14 0 34.5 15.5t35.5 15.5q74 0 176 -125q74 -92 147 -187q-35 51 -125 187q70 -2 158 -92 q113 -115 145 -132q-47 45 -129 144q15 -5 242 -62zM965 1401v106h-27v-106h27zM870 1440l-39 59l-20 -16l37 -56zM1106 1223l-76 37l-8 -23l74 -37zM1485 881q-53 123 -146 202q-106 90 -227 91q-49 0 -100 -23q-61 -29 -64 -72q90 47 123 47q96 0 225 -86 q103 -67 189 -159zM989 1198v29l-74 18v-26zM940 1174q-76 -39 -76 -58q18 -18 62 -18q6 25 14 76zM584 1305l-21 75h-26l18 -75h29zM854 950l-147 269h-25l149 -279zM918 922l-21 61l-23 -8l19 -53h25zM1792 43q-66 55 -188 170q45 -80 153 -221q-27 51 -26 65q0 8 6 13 q26 -27 55 -27zM672 1106q-55 49 -56 137v139q-10 -70 -34 -208q-37 25 -152 137q-102 100 -141 116q35 -35 69 -67q39 -41 60 -78q-106 -4 -146 -2q72 -20 146 -41q90 -29 127 -70q-119 -25 -242 -18q125 -8 369 -45zM690 1030l-10 23l-166 -84v-25zM1618 -88l-64 20v-24 l54 -19zM1583 -180q-72 72 -88 106q0 -16 7 -48t7 -48q4 6 15 6q10 0 29.5 -8t29.5 -8zM246 1128l-37 95l-23 -9l35 -86h25zM283 983q0 104 -37 143q0 -29 -8.5 -82t-8.5 -77q23 23 39 22q9 0 15 -6zM575 1042q-63 -66 -137 -184q-109 -174 -123 -194q12 29 37 84 q-57 41 -53 40q-6 -2 -2 -6v64q-2 -37 16 -55q25 12 113 139q75 110 149 112zM1360 182q0 223 -90 412q-106 215 -293 289q131 -96 201 -332q55 -188 55 -393q0 -53 -23 -88q-37 215 -73 430q-55 238 -219 370q-33 -88 -44 -274q-2 -141 -4 -283q-2 -72 -4 -96 q-6 -82 -20 -84l-15 584q0 20 9.5 63t9.5 64q0 23 -8 57q-233 -143 -234 -575q0 -147 51 -371q66 -285 156 -285h168q84 0 117 56l35 100q18 55 67 55q-33 -96 -82 -174q18 -4 35 -4q106 0 164 195q41 139 41 284zM279 897v82h-29v-82h29zM342 895l-23 8l-20 -41l23 -10z M760 913q-168 -14 -258 -221q-70 -160 -70 -358q0 -184 53 -342q68 -201 201 -273q-127 395 -127 615q0 376 201 579zM768 958q-31 25 -72 25q-152 0 -278 -221q-115 -199 -115 -363q0 -39 82 -159q-14 -2 -27 -2q-25 0 -53 22v-121q14 -18 60 -98q35 -61 67 -90l-63 -12 q37 -51 155 -170q-125 289 -125 538q0 266 60 414q86 219 309 237z" />
<glyph unicode="u" d="M1726 172q0 -53 -55 -101t-102 -48q-61 0 -96 34q-27 25 -56 93q-23 -129 2 -302h-217v332q70 -14 166 -14q125 0 358 94v-88zM1927 911v0v0v0zM1901 881h-107v26h107v-26zM2046 920q-45 8 -168 36q-104 27 -127 27q-119 0 -266 -70q-188 -86 -281 -235v463h201 q-4 -72 12 -94q100 113 160 112q57 0 98 -57q6 -10 45 -88q10 12 11 127h57q10 94 -2 223h211q4 -10 4 -29q0 -14 -3 -51t-3 -57q0 -86 51 -86v-221zM2005 702l-197 -313l-22 10l196 312zM2046 25h-184q-66 57 -70 143v156q150 92 201 227q2 -10 0 -162q0 -100 53 -147v-217 zM1729 864q-100 -33 -142 -90q-31 4 -51 -18q-27 -27 -31 -29q-43 4 -53 -39q-23 4 -43 -11t-20 -28q-20 2 -41 -16.5t-21 -36.5q-43 -45 -43 -51q0 -4 2 -10q-2 8 -10 8q-37 0 -72 -56q35 106 35 152q0 -41 29 -41q23 39 20 80q0 -8 10 -16q18 -10 23 -15q23 23 8 76 q25 0 53 -29q4 6 17 45q8 18 16 19q53 6 53 26q0 14 -8 37q8 -8 24.5 -15t24.5 -15q18 29 19 32q0 12 -6 29q29 0 57 -31q12 0 59 49q13 -6 91 -6zM1726 371q-80 -84 -239 -123q-117 -27 -240 -25l-47 -2q299 50 526 150zM1190 451l-70 -158l-22 10l67 148h25zM1184 743 q0 -115 -21.5 -148.5t-93.5 -39.5q-104 -8 -207 -18v-310q4 0 15.5 -6t33.5 -6q61 0 62 117q0 35 -5 78l-5 43l131 -9l10 -202q31 -31 63 -31q-72 -131 -145 -170q-35 -18 -111 -18q-276 0 -276 389q0 37 3 96t3 74q0 14 -2 64t-2 83q0 430 274 430q273 0 273 -416zM625 358 q0 -150 -84 -242.5t-230 -92.5q-104 0 -202 69q-109 76 -107 180v228h219q-2 23 -2 -111q0 -127 84 -127q66 0 80 45q2 6 2 60q0 129 -96 221q-88 78 -178 157q-94 113 -95 293q0 160 56 260q76 131 239 132q113 0 201 -74q96 -82 94 -203v-168h-219q2 68 2 57 q0 102 -78 164q-29 -14 -55 -43q-33 -33 -33 -61q0 -61 105 -178q150 -166 192 -234q105 -160 105 -332zM958 762v151q-33 35 -75 35l-17 -186h92z" />
<glyph unicode="v" d="M741 113l-22 -15l-37 58l23 14zM485 121h-26v76h26v-76zM2046 922h-59v-906q10 -12 59 -12v-317h-211q-61 0 -104 100q-35 76 -35 117v1018h-66q0 10 0 -273h-284q4 -29 4 131q0 119 -47 170q-35 -16 -69 -47t-36 -39v-633q-96 35 -158 35q61 92 146 121q-12 43 -74 43 q6 0 55 49q-16 49 -92 49q-20 0 -62 -5t-59 -5q-14 0 -24 4v121q68 23 190 88q-20 2 -60 15.5t-61 13.5q-37 0 -69 -33v182q0 131 131 230q113 84 211 84q119 0 207 -82q41 -37 127 -158q25 80 -4 221h90q18 135 -2 289h290q4 -20 5 -49q0 -20 -3.5 -66.5t-3.5 -66.5 q0 -94 68 -107v-282zM1630 -4q2 -102 -119.5 -205.5t-230.5 -103.5q-227 0 -317 237q16 -12 65 -37q61 -31 102 -57h56q0 90 -17 141q88 2 150 47q86 59 137 76q-39 14 -110 43v219h284v-360zM1079 139q-70 23 -200 47q49 -63 143 -194q-47 41 -96 119q-45 72 -80 100 q-61 47 -176 70q-16 -35 -2 -66q-139 152 -224 145q-16 -51 11 -131q2 63 -67 142.5t-136 85.5q-2 -8 -19 -172q-14 -119 -57 -174q8 -8 33 -2q33 8 45 8q16 -174 170 -367q102 94 123 158q6 0 67 -62q8 16 16.5 56.5t16.5 56.5q47 -72 121 -121q-72 -59 -141 -117 q-49 -35 -140 -34q-100 0 -235 92q-156 106 -156 237v621q0 18 -22 72q-29 63 -37 96q6 -8 24.5 -8t28.5 -23q8 8 8 35v127q-2 158 -2 311q76 201 153 272.5t222 71.5q139 0 266 -107.5t125 -219.5v-439q-63 6 -149 -22q-27 -8 -150 -60q0 164 -2 529h-117q-23 -25 -49 -88 v-506q-8 16 -35 65q-18 -35 -38 -106q-23 -82 -37 -117q4 0 -95 33q14 -20 79 -67.5t83 -47.5q61 0 137 160l-6 -47q-2 -29 6 -49q51 18 168 84q-80 -45 -241 -156q94 -70 145 -87t166 -17q121 0 137 6q-33 -8 -96 -15.5t-96 -15.5q135 -56 407 -162zM199 578l-23 -15 l-70 88l23 15zM129 567v0v0v0zM104 750v0v0v0z" />
<glyph unicode="w" d="M766 592h-107v29h107v-29zM229 410h-26v106h26v-106zM862 922h-219v442h219v-442zM1473 502q0 -23 2 -87.5t2 -105.5q0 -416 -293 -415q-90 0 -180.5 74.5t-90.5 160.5v307q66 -20 78 -6q-49 33 -209 76q10 -20 80 -55v-555h-266q-84 332 -84 421q0 16 66.5 123t66.5 207 q0 18 -2 37q14 -10 29 -20q25 -16 49 -17q49 0 169 57.5t138 88.5q-51 -76 -213 -170q14 -6 44 -4t44 -7q27 -76 113 -190q88 125 88 160q0 68 -34 171t-62 126q8 8 32.5 16t30.5 16q-6 6 -39 7q-20 0 -94 -25q-80 -29 -90 -47l10 -103q-4 4 -115 80q-35 -16 -98 -80 q4 70 -16 113h-45q-33 -27 -33 -59q0 -16 17.5 -73.5t21.5 -107.5q-23 20 -39 21q-8 0 -12 -4t-9 -4q-4 0 -22.5 9t-36.5 9q-23 0 -35 -7t-18 -7q0 10 11 38.5t11 47.5q0 12 -4 24q-8 0 -14 21q-10 31 -14 43q-12 -10 -13 -80q-53 31 -92 31q-55 0 -55 -19q0 -8 24 -18 q-8 -14 -8 -29q0 -63 109 -123q82 -45 194 -75q-10 0 -77.5 5t-116.5 5q-72 -113 -94 -225q4 53 -46 127q-4 -8 -4 -21q0 -16 13.5 -53t13.5 -58q14 -14 141 2v-378h-235l31 1126q-63 55 -175 123v74q41 -23 129 -64q25 98 -2 207h285q4 -33 49 -211q37 -139 31 -223 q92 -43 178 -43q160 0 230 61q45 57 90 117q55 61 176 61q297 0 297 -430q0 -49 -4 -115.5t-4 -78.5zM281 1071v0v0v0zM2046 860v215h-219q6 -61 6 -131q0 -129 -25 -317q-20 -152 -41 -301l-57 749h-235l143 -1179h299q18 182 78 587q53 363 51 377zM1036 963v26l-73 -18 v-27zM1247 510q0 346 -71 408q-12 -8 -25.5 -20.5t-13.5 -37.5v-704q35 -35 75 -35q35 104 35 389zM434 983l-90 53l-10 -22l90 -53zM420 866l-55 56l-17 -17l55 -55zM293 963l-41 38l-16 -16l38 -39zM520 719v0v0v0zM469 745v74h-27v-74h27zM299 547q-6 14 -33 37 q-18 14 -39 30v-94z" />
<glyph unicode="x" d="M934 985h-25l-98 197l23 10zM1968 -76h-16q-61 -2 -191 88q-96 66 -170 140q-346 -131 -788 -543q121 164 336 315q143 100 397 236q-68 66 -201 198q-68 -35 -67 -96q0 -31 18 -80l-31 33q-20 -33 -67 -94q53 106 78 227q-102 43 -297 43q-121 0 -201 -39l63 43 q-133 35 -184 35l41 16l-78 86q131 -123 303 -122q-23 41 -73 79q-45 33 -90 64q41 -31 124 -84q104 -63 127 -63l295 12q-66 90 -188 145q-111 49 -219 99l8 -39q-80 4 -260 41q-166 33 -256 30q-41 -133 -45 -141q-31 -55 -127 -92q70 -45 194 -170q109 -104 199 -148 q135 -66 350 -73q86 94 123 145q-72 -104 -237 -487q63 164 106 299q-168 61 -526 127q2 133 -101 208q-59 45 -221 101q70 2 162 41q111 45 111 102q0 20 -95 164q322 -80 480 -78q-119 172 -336 527q43 -10 91 -24.5t77 -37.5h57q14 39 14 76q0 66 -24 176 q-35 143 -39 178l12 2q41 0 160 -147q76 -94 152 -189q25 63 65 306q66 -96 162 -263q119 -203 158 -266q39 94 77 279q31 23 98.5 41t92.5 34q45 31 53 95l-2 -105q-2 -68 25 -92q4 -14 4 -35q0 -23 -10.5 -71t-10.5 -70q0 -74 86 -74q23 0 66 5t57 5q-102 -289 -321 -698 q90 207 260 625l-45 -8q-84 0 -115 167q-14 121 -31 240q-109 -37 -160 -108q-41 -55 -57 -154.5t-31 -194.5q-84 55 -180 242q-121 231 -158 277q-37 -94 -63 -271q-78 68 -158 180q-20 29 -133 203q-6 -2 -6 -39q0 -74 125 -452q-35 -2 -111 24q-57 18 -112 39 q156 -260 202 -319q147 -182 308 -183q31 0 84 15q-27 49 -76 112q-43 53 -84 107q14 41 49 121q18 -150 127 -297q35 -49 213 -248q20 47 31 119q10 61 20 121l15 -64q37 39 118 109q-61 -49 -106 -142q-8 -14 -68 -166q227 -207 283 -254q164 -139 309 -221zM621 432 l-123 17v28l123 -18v-27z" />
<glyph unicode="y" d="M2025 -104h-182q-18 53 -84 151q33 33 113 143q-63 94 -113 144q41 55 129 162q-47 59 -176 157q43 53 94 133q66 104 66 140q0 23 -40 67.5t-40 69.5q0 18 45 84.5t51 95.5q-74 45 -143 115q162 170 280 215v-1677zM1808 1604q-145 -158 -184 -158q-23 0 -57 27 q-49 35 -54 38q-45 -49 -92 -96q-53 -47 -123 -47q-31 94 -137 174q-68 -63 -94 -143q-74 49 -225 143q-41 -47 -82 -47q-23 0 -99.5 63.5t-101.5 63.5q-20 0 -119 -55q-113 -66 -131 -72q-37 47 -116 141h626q61 0 180 -16t179 -16h630zM1679 768q-66 -31 -131 -59 q-59 -37 -59 -127q0 -104 160 -183q-223 -164 -443 -200q-98 -16 -479 -17q-45 0 -221 -176q-29 12 -70 43q-57 41 -67 47q80 2 163 35q94 35 140 90q-33 33 -35 103q2 -57 2 110q0 53 -55.5 151.5t-55.5 125.5q0 74 76 247q57 125 115 248q47 -80 53 -92q33 -53 68 -84 q35 20 149 66q96 35 141 78q0 -16 -6 -52.5t-6 -56.5q0 -82 66 -82q45 0 211 107q150 96 202 147q-37 -66 -71 -129q-37 -80 -37 -141q0 -78 56 -137.5t134 -61.5zM319 719q-127 -170 -126 -201q0 -27 39.5 -100.5t39.5 -100.5q0 -113 -79.5 -308t-157.5 -273v1540 q0 37 16.5 108.5t16.5 108.5q205 -152 204 -190q0 -23 -26 -62q-18 -29 -37 -57l94 -97q-96 -129 -160 -192zM1919 -356l-1774 -33q127 129 295 268q119 -80 160 -80q27 0 99.5 40t101.5 40q25 0 134 -48t136 -48q18 0 46 40t50 40q25 0 100.5 -56.5t100.5 -56.5q23 0 71 32 t72 32q25 0 58 -32t55 -32q25 0 59 19l54 28q71 -69 182 -153zM1536 399q-127 59 -127 160q0 100 127 209q-61 12 -96 76q-31 53 -31 121q0 66 29 96q-39 -39 -115 -94q-90 -63 -123 -64q-47 0 -90 51q-29 45 -59 93q-195 -49 -232 -50q-66 0 -90 82q-104 -252 -104 -368 q0 -51 50 -196.5t46 -231.5q139 -51 231 -52q273 0 584 168zM1278 739q-55 -86 -127 -133q33 -18 96 -14q-6 -2 -57 -37q-35 -25 -66 -29q-55 -8 -143 -61q-98 -59 -145 -74q0 18 86 121q-16 43 -17 102q0 55 15 113q16 -51 32 -100q20 -59 76 -62q33 37 66 146 q8 -23 34 -64q37 25 74 51q53 37 76 41z" />
<glyph unicode="z" horiz-adv-x="1705" d="M1440 1059q-55 -37 -105 -37q27 0 35 37h70zM1657 754q-25 -4 -58 -39q0 -12 33 -45q-20 -12 -45.5 -44t-25.5 -53q0 6 -12.5 16.5t-12.5 33.5l20 29q19 30 31 102h70zM1534 729q2 -39 -21 -82q-16 18 -49 39q8 0 24.5 2t24.5 2q-18 29 -57 39q-31 10 -31 23q0 12 15 43 q-37 10 -45 10h-2q2 -2 8 -6q86 -37 119 -33l-64 -31q12 -6 27 -6q27 0 51 10v-10zM1647 778q-51 27 -254 66q31 25 71.5 90t71.5 90q-6 8 -16 8q-18 0 -52 -16l84 55q-12 6 -73 23q-43 12 -64 49q-20 -23 -63 -43q-57 -29 -68 -37v10q0 14 -43 101q-4 -12 -4 -134 q0 -63 -37 -67q16 -4 45 -4q66 0 137 24q-74 -35 -245 -69q217 -219 424 -502q16 20 16 121v-39q0 -96 -14 -146q-41 31 -105 62q-74 35 -115 35q-29 0 -57 -33q-10 31 -45 82q-43 59 -51 80q-33 -10 -92 -80q-63 -76 -101 -96l-32 122q-27 78 -84 74q53 45 80 127 q-49 10 -146 35q49 16 98.5 67.5t49.5 98.5q25 2 50 6t36 33q-66 0 -197 -18.5t-197 -18.5q-82 0 -166 35q-104 41 -104 110q115 98 176 158l-2 12q-2 59 72 107q66 43 129 43q76 0 292 -112.5t255 -176.5q41 25 127 64q45 -23 92 -46q37 -23 73 -73q-8 -14 -55 -51 q-39 -29 -39 -56q0 -18 15 -41q-47 -10 -80 -43q74 -18 207 -86zM662 401h-27l-17 179h27zM897 168l-8 -23l-53 19v24zM989 313q-8 23 -36.5 58t-32.5 49q-39 18 -76 37q-51 25 -49 53v8q-41 -31 -99 -96q-33 63 -32 168q0 -193 -5 -217q-4 0 -18 9t-33 9q-25 0 -38 -20.5 t-25 -38.5q29 0 71 43q20 -4 56 -23q-82 -41 -113 -41q-14 0 -46 5.5t-48 5.5q70 -70 67 -91q68 94 132 95q41 0 98 -150q53 -139 49 -190v-9q-51 12 -109.5 83t-76.5 77q39 -18 108 -96q78 -90 111 -113q-90 270 -125 416q76 -12 104 -10h25q-49 0 -113 33q20 8 58 88 q2 -2 16 -31q8 -18 31 -18q18 0 24 8t25 8q23 0 20 -12q-2 -20 2 -27q-33 -16 -80 -16q16 0 48 4t49 4q27 0 26 -4q-2 -12 7 -21q-43 -45 -130 -112q92 -45 125 -86q-27 53 -75 102q55 59 104 59h4zM934 115l-53 -111l-23 10l51 101h25zM678 299l-103 -152l-20 15l100 151z M592 96h-10q-4 0 -84 -39q20 33 20 68q0 47 -37 86q14 -6 25 -45q8 -31 30.5 -31t37 -19.5t18.5 -19.5zM1210 1174q-18 -37 -28 -56q-23 -33 -43 -43v-123q51 23 63 78q6 25 6 105q0 27 2 39zM1077 1016l-131 215l-24 -8l133 -217zM1184 1200q-156 119 -232 119 q-18 0 -24 -8t-25 -8q-23 0 -76 39.5t-75 39.5q-66 0 -115 -48t-41 -113q-57 23 -68 22q-8 0 -12 -8q-39 -63 -51 -78q-27 -37 -66 -70q16 -37 105 -71q80 -33 129 -33q25 0 75 23.5t76 23.5q33 0 102.5 -6t104.5 -6q-94 127 -94 188q0 35 68 66q18 -49 63 -115 q59 -92 70 -110q8 33 43 80.5t43 72.5zM1104 915h-109q0 -51 -34 -90h73q23 31 70 90zM1534 418q-106 145 -393 467q4 -27 4 -56q0 -113 -80 -278q0 66 18 160q16 80 33 157q-106 -78 -205 -102q63 4 80 -16q-16 -51 -24 -70q-16 -37 -39 -59q74 -16 67 -150q18 10 31 29 q16 29 23 35q10 -23 34 -48l58 72q37 47 65 55q25 -47 78 -143q12 2 37 9t39 7q25 0 86 -28q45 -21 88 -41zM788 479l-22 8l-59 -104l22 -10z" />
<glyph unicode="&#xa0;" />
<glyph unicode="&#x2000;" horiz-adv-x="828" />
<glyph unicode="&#x2001;" horiz-adv-x="1657" />
<glyph unicode="&#x2002;" horiz-adv-x="828" />
<glyph unicode="&#x2003;" horiz-adv-x="1657" />
<glyph unicode="&#x2004;" horiz-adv-x="552" />
<glyph unicode="&#x2005;" horiz-adv-x="414" />
<glyph unicode="&#x2006;" horiz-adv-x="276" />
<glyph unicode="&#x2007;" horiz-adv-x="276" />
<glyph unicode="&#x2008;" horiz-adv-x="207" />
<glyph unicode="&#x2009;" horiz-adv-x="331" />
<glyph unicode="&#x200a;" horiz-adv-x="92" />
<glyph unicode="&#x202f;" horiz-adv-x="331" />
<glyph unicode="&#x205f;" horiz-adv-x="414" />
<glyph unicode="&#x25fc;" horiz-adv-x="1587" d="M0 1587h1587v-1587h-1587v1587z" />
</font>
</defs>
</svg>
